<svg width="31" height="31" viewBox="0 0 31 31" fill="none" xmlns="http://www.w3.org/2000/svg">
<path d="M16.3897 2.19453C16.387 1.50028 15.8221 0.939648 15.1278 0.942317C14.4336 0.944987 13.8729 1.50995 13.8756 2.2042L13.9813 29.6899C13.984 30.3841 14.5489 30.9448 15.2432 30.9421C15.9374 30.9394 16.4981 30.3745 16.4954 29.6802L16.3897 2.19453Z" fill="#F2C413"/>
<path d="M28.9332 17.1464C29.6274 17.1437 30.1881 16.5788 30.1854 15.8845C30.1827 15.1903 29.6178 14.6296 28.9235 14.6323L1.43782 14.738C0.743577 14.7407 0.182943 15.3056 0.185612 15.9999C0.188282 16.6941 0.753245 17.2548 1.44749 17.2521L28.9332 17.1464Z" fill="#F2C413"/>
<path d="M24.0554 26.5158C24.5481 27.0049 25.3441 27.0018 25.8331 26.509C26.3221 26.0162 26.319 25.2203 25.8262 24.7313L6.3162 5.37071C5.8234 4.88169 5.02748 4.88475 4.53847 5.37754C4.04945 5.87034 4.05251 6.66626 4.5453 7.15527L24.0554 26.5158Z" fill="#F2C413"/>
<path d="M4.614 24.8121C4.12498 25.3048 4.12804 26.1008 4.62084 26.5898C5.11363 27.0788 5.90955 27.0757 6.39857 26.5829L25.7591 7.07289C26.2482 6.5801 26.2451 5.78418 25.7523 5.29516C25.2595 4.80614 24.4636 4.8092 23.9746 5.302L4.614 24.8121Z" fill="#F2C413"/>
</svg>
