<svg width="20" height="18" viewBox="0 0 20 18" fill="none" xmlns="http://www.w3.org/2000/svg">
<path d="M19.4853 6.2598C19.2241 5.93213 18.8323 5.74415 18.4102 5.74415H14.6011L12.5355 1.01447C12.4075 0.721229 12.0659 0.587219 11.7726 0.715357C11.4793 0.843418 11.3454 1.18503 11.4735 1.47831L13.3365 5.74419H6.44249L8.30546 1.47831C8.43352 1.18503 8.29963 0.843457 8.00634 0.715357C7.7131 0.587219 7.37148 0.721152 7.24342 1.01447L5.17787 5.74419H1.36873C0.946649 5.74419 0.554817 5.93213 0.293635 6.25984C0.0372424 6.58155 -0.0573642 6.99513 0.0340748 7.39465L2.06825 16.2797C2.2103 16.9001 2.75913 17.3334 3.40291 17.3334H16.376C17.0198 17.3334 17.5686 16.9001 17.7107 16.2797L19.7449 7.39461C19.8363 6.99509 19.7417 6.58151 19.4853 6.2598ZM16.376 16.1745H3.40291C3.30452 16.1745 3.21833 16.1099 3.19797 16.021L1.16379 7.13602C1.14784 7.06629 1.17461 7.01383 1.19995 6.98211C1.22344 6.9526 1.27663 6.90311 1.36873 6.90311H4.67177L4.51999 7.25068C4.39193 7.54396 4.52583 7.88553 4.81911 8.01363C4.8946 8.04662 4.97325 8.06223 5.0507 8.06223C5.27406 8.06223 5.48692 7.93231 5.58203 7.71455L5.93639 6.90319H13.8426L14.197 7.71455C14.2921 7.93235 14.505 8.06223 14.7283 8.06223C14.8057 8.06223 14.8844 8.04662 14.9599 8.01363C15.2532 7.88557 15.3871 7.54396 15.259 7.25068L15.1073 6.90311H18.4103C18.5024 6.90311 18.5556 6.9526 18.5791 6.98211C18.6044 7.01387 18.6312 7.06633 18.6152 7.13598L16.5811 16.0211C16.5607 16.1099 16.4744 16.1745 16.376 16.1745Z" fill="currentcolor"/>
<path d="M6.41271 9.41407C6.09269 9.41407 5.83324 9.67352 5.83324 9.99354V14.2429C5.83324 14.5629 6.09269 14.8224 6.41271 14.8224C6.73272 14.8224 6.99217 14.5629 6.99217 14.2429V9.99354C6.99217 9.67352 6.73276 9.41407 6.41271 9.41407Z" fill="currentcolor"/>
<path d="M9.88947 9.41407C9.56946 9.41407 9.31001 9.67352 9.31001 9.99354V14.2429C9.31001 14.5629 9.56946 14.8224 9.88947 14.8224C10.2095 14.8224 10.4689 14.5629 10.4689 14.2429V9.99354C10.4689 9.67352 10.2095 9.41407 9.88947 9.41407Z" fill="currentcolor"/>
<path d="M13.3662 9.41407C13.0462 9.41407 12.7868 9.67352 12.7868 9.99354V14.2429C12.7868 14.5629 13.0462 14.8224 13.3662 14.8224C13.6863 14.8224 13.9457 14.5629 13.9457 14.2429V9.99354C13.9457 9.67352 13.6863 9.41407 13.3662 9.41407Z" fill="currentcolor"/>
</svg>