<svg width="30" height="26" viewBox="0 0 30 26" fill="none" xmlns="http://www.w3.org/2000/svg">
<path d="M30 13.4234C29.4937 13.8003 29.2405 14.1772 28.9873 14.3029C27.7215 14.8055 26.4557 15.308 25.1899 15.8106C23.2911 16.4388 22.1519 17.6953 21.8987 19.7056C21.6456 21.339 21.3924 22.9724 21.0127 24.6058C20.8861 25.1083 20.5063 25.8622 20.1266 25.9879C19.3671 26.1135 19.3671 25.234 19.2405 24.7314C18.7342 23.2237 18.2278 21.5903 17.8481 20.0825C17.2152 17.9466 15.8228 16.8158 13.5443 16.8158C12.6582 16.8158 11.8987 16.6901 11.0127 16.5645C10.5063 16.5645 10.2532 16.3132 10 16.0619C10.2532 15.8106 10.3797 15.4337 10.6329 15.308C11.8987 14.8055 13.2911 14.3029 14.557 13.9259C15.8228 13.549 16.7089 12.6695 16.962 11.413C17.4684 9.40273 17.8481 7.39241 18.3544 5.50774C18.6076 4.87951 18.3544 4 19.2405 4C20.1266 4 20 4.75387 20.1266 5.25645C20.5063 7.01548 20.8861 8.64886 21.3924 10.4079C22.0253 12.6695 22.5316 13.0464 24.9367 13.0464C26.2025 13.0464 27.5949 12.9208 28.8608 12.9208C28.9873 12.9208 29.3671 13.1721 30 13.4234Z" fill="#CECCFD"/>
<path d="M10 4.71168C9.74684 4.90015 9.62025 5.08862 9.49367 5.15144C8.86076 5.40273 8.22785 5.65402 7.59494 5.90531C6.64557 6.21942 6.07595 6.84765 5.94937 7.85281C5.82278 8.6695 5.6962 9.48619 5.50633 10.3029C5.44304 10.5542 5.25316 10.9311 5.06329 10.9939C4.68354 11.0568 4.68354 10.617 4.62025 10.3657C4.36709 9.61184 4.11392 8.79514 3.92405 8.04127C3.60759 6.97329 2.91139 6.40789 1.77215 6.40789C1.32911 6.40789 0.949367 6.34507 0.506329 6.28225C0.253165 6.28225 0.126582 6.1566 0 6.03096C0.126582 5.90531 0.189873 5.71684 0.316456 5.65402C0.949367 5.40273 1.64557 5.15144 2.27848 4.96297C2.91139 4.77451 3.35443 4.33475 3.48101 3.70652C3.73418 2.70137 3.92405 1.69621 4.17722 0.753869C4.3038 0.439757 4.17722 0 4.62025 0C5.06329 0 5 0.376935 5.06329 0.628225C5.25316 1.50774 5.44304 2.32443 5.6962 3.20395C6.01266 4.33475 6.26582 4.52322 7.46835 4.52322C8.10127 4.52322 8.79747 4.46039 9.43038 4.46039C9.49367 4.46039 9.68354 4.58604 10 4.71168Z" fill="#CECCFD"/>
</svg>
