<svg width="30" height="30" viewBox="0 0 30 30" fill="none" xmlns="http://www.w3.org/2000/svg">
<g clip-path="url(#clip0_0_267)">
<path d="M23.7221 18.5839C23.1071 17.9444 22.3652 17.6025 21.5789 17.6025C20.799 17.6025 20.0507 17.9381 19.4103 18.5776L17.4066 20.5721C17.2417 20.4834 17.0768 20.4011 16.9183 20.3188C16.69 20.2048 16.4745 20.0972 16.2906 19.9832C14.4137 18.7929 12.7079 17.2416 11.072 15.2345C10.2794 14.234 9.74673 13.3919 9.35993 12.5372C9.87989 12.0623 10.3618 11.5684 10.831 11.0935C11.0086 10.9162 11.1861 10.7326 11.3637 10.5553C12.6953 9.22567 12.6953 7.50345 11.3637 6.17379L9.6326 4.44523C9.43603 4.24895 9.23312 4.04633 9.04289 3.84372C8.66243 3.45115 8.26295 3.04592 7.85079 2.66602C7.23572 2.05818 6.50018 1.73526 5.72658 1.73526C4.95299 1.73526 4.20476 2.05818 3.57067 2.66602C3.56433 2.67235 3.56433 2.67235 3.55799 2.67868L1.40207 4.85046C0.590434 5.66092 0.127547 6.64867 0.026092 7.7947C-0.12609 9.64356 0.419229 11.3658 0.83773 12.4928C1.86496 15.2598 3.39946 17.8241 5.68854 20.5721C8.46586 23.8836 11.8075 26.4986 15.6248 28.3411C17.0832 29.0312 19.0298 29.848 21.2048 29.9873C21.3379 29.9937 21.4774 30 21.6043 30C23.069 30 24.2992 29.4745 25.263 28.4297C25.2693 28.4171 25.282 28.4107 25.2883 28.3981C25.6181 27.9992 25.9985 27.6383 26.398 27.252C26.6707 26.9924 26.9497 26.7202 27.2223 26.4352C27.8501 25.7831 28.1798 25.0233 28.1798 24.2445C28.1798 23.4593 27.8437 22.7059 27.2033 22.0727L23.7221 18.5839ZM25.9922 25.2512C25.9858 25.2576 25.9858 25.2512 25.9922 25.2512C25.7449 25.5172 25.4912 25.7578 25.2186 26.0237C24.8064 26.4163 24.3879 26.8278 23.9948 27.29C23.3544 27.9739 22.5998 28.2968 21.6106 28.2968C21.5155 28.2968 21.414 28.2968 21.3189 28.2904C19.4357 28.1701 17.6856 27.4357 16.373 26.8088C12.784 25.0739 9.6326 22.6109 7.01379 19.4894C4.85154 16.887 3.40581 14.481 2.44833 11.8976C1.85862 10.3211 1.64303 9.0927 1.73814 7.934C1.80155 7.19319 2.08689 6.57902 2.61319 6.05348L4.77545 3.89437C5.08615 3.60311 5.41588 3.44482 5.73927 3.44482C6.13874 3.44482 6.46213 3.68543 6.66504 3.88804C6.67138 3.89437 6.67772 3.9007 6.68406 3.90704C7.07086 4.26794 7.43863 4.64151 7.82543 5.04041C8.022 5.24303 8.22491 5.44564 8.42782 5.65459L10.1589 7.38314C10.831 8.0543 10.831 8.67481 10.1589 9.34597C9.975 9.52959 9.79746 9.71321 9.61357 9.8905C9.08093 10.435 8.57366 10.9416 8.022 11.4354C8.00932 11.4481 7.99664 11.4544 7.9903 11.4671C7.44498 12.0116 7.54643 12.5435 7.66057 12.9044C7.66691 12.9234 7.67325 12.9424 7.67959 12.9614C8.1298 14.0504 8.76389 15.0762 9.72771 16.2982L9.73405 16.3045C11.4841 18.4573 13.3294 20.1352 15.3648 21.4205C15.6248 21.5852 15.8911 21.7181 16.1447 21.8448C16.373 21.9587 16.5886 22.0664 16.7725 22.1803C16.7978 22.193 16.8232 22.212 16.8486 22.2247C17.0642 22.3323 17.2671 22.383 17.4763 22.383C18.0026 22.383 18.3323 22.0537 18.4401 21.9461L20.6087 19.7806C20.8243 19.5653 21.1667 19.3057 21.5662 19.3057C21.9594 19.3057 22.2827 19.5527 22.4793 19.768C22.4857 19.7743 22.4857 19.7743 22.492 19.7806L25.9858 23.2694C26.639 23.9152 26.639 24.5801 25.9922 25.2512Z" fill="white"/>
<path d="M16.2144 7.13619C17.8758 7.41479 19.3849 8.19992 20.5897 9.40294C21.7945 10.606 22.5744 12.1129 22.8597 13.7718C22.9295 14.1897 23.2909 14.481 23.7031 14.481C23.7538 14.481 23.7982 14.4746 23.8489 14.4683C24.3182 14.3923 24.6289 13.9491 24.5528 13.4806C24.2104 11.4734 23.2592 9.64355 21.8071 8.19359C20.3551 6.74363 18.5225 5.79387 16.5125 5.45196C16.0432 5.37598 15.6057 5.68623 15.5233 6.14845C15.4409 6.61066 15.7452 7.06021 16.2144 7.13619Z" fill="white"/>
<path d="M29.9869 13.2336C29.4226 9.92848 27.8627 6.92092 25.4659 4.52754C23.069 2.13415 20.0571 0.576553 16.7471 0.0130316C16.2842 -0.0692806 15.8467 0.247305 15.7642 0.709519C15.6882 1.17807 15.9989 1.61495 16.4681 1.69727C19.423 2.19747 22.1179 3.59678 24.2611 5.73056C26.4043 7.87068 27.7993 10.5617 28.3003 13.5122C28.37 13.9301 28.7314 14.2214 29.1436 14.2214C29.1943 14.2214 29.2387 14.215 29.2894 14.2087C29.7523 14.1391 30.0694 13.6959 29.9869 13.2336Z" fill="white"/>
</g>
<defs>
<clipPath id="clip0_0_267">
<rect width="30" height="30" fill="white"/>
</clipPath>
</defs>
</svg>
