<svg width="20" height="20" viewBox="0 0 20 20" fill="none" xmlns="http://www.w3.org/2000/svg">
<g clip-path="url(#clip0_0_2442)">
<path d="M19.9983 9.96833C19.9983 10.4059 19.9983 10.8434 19.9359 11.2809C19.8735 11.5934 19.5615 11.8434 19.2495 11.8434C18.9375 11.8434 18.688 11.4684 18.688 11.1559C18.7503 10.7184 18.7503 10.3433 18.7503 9.96833C18.7503 5.15563 14.8193 1.21797 10.0147 1.21797C9.64036 1.21797 9.26598 1.21797 8.8292 1.28047C8.51721 1.34297 8.14283 1.09296 8.14283 0.780451C8.08043 0.467938 8.33002 0.092922 8.64201 0.092922C14.133 -0.657109 19.1247 3.21805 19.8735 8.65578C19.9983 9.0933 19.9983 9.53081 19.9983 9.96833Z" fill="#7F7E97"/>
<path d="M6.6453 18.0312C5.95893 17.7187 5.27256 17.3436 4.64859 16.9061C4.399 16.7186 3.96222 16.7186 3.77503 17.0311C3.58784 17.2811 3.58784 17.7187 3.89982 17.9062C4.58619 18.4062 5.33496 18.9062 6.14612 19.2187C6.45811 19.3437 6.83249 19.2187 6.95728 18.9062C7.14448 18.5312 7.01968 18.1562 6.6453 18.0312Z" fill="#7F7E97"/>
<path d="M4.27421 3.15555C4.399 3.15555 4.52379 3.09305 4.64859 3.03054C5.27256 2.59303 5.89653 2.15551 6.5829 1.9055C6.89489 1.78049 7.08208 1.40548 6.95728 1.09296C6.83249 0.780451 6.45811 0.592943 6.14612 0.717948C5.33496 1.03046 4.58619 1.46798 3.89982 2.0305C3.65023 2.28051 3.58784 2.65553 3.77503 2.90554C3.89982 3.09305 4.08701 3.15555 4.27421 3.15555Z" fill="#7F7E97"/>
<path d="M1.96551 13.3435C1.84072 13.031 1.46633 12.8435 1.15435 12.9685C0.842362 13.0935 0.65517 13.4685 0.779965 13.781C1.09195 14.5935 1.52873 15.3436 2.09031 16.0311C2.2775 16.2811 2.71428 16.3436 2.96387 16.1561C3.21345 15.9686 3.27585 15.5311 3.08866 15.2811C2.65188 14.7185 2.2151 14.031 1.96551 13.3435Z" fill="#7F7E97"/>
<path d="M1.34154 11.1559C1.21674 10.4059 1.21674 9.65582 1.34154 8.84329C1.40394 8.53077 1.15435 8.21826 0.779965 8.15576C0.405582 8.09325 0.155993 8.34327 0.0935958 8.71828C-0.0311986 9.59332 -0.0311986 10.4684 0.0935958 11.3434C0.155993 11.6559 0.405582 11.9059 0.717567 11.9059H0.779965C1.15435 11.7809 1.40394 11.4684 1.34154 11.1559Z" fill="#7F7E97"/>
<path d="M1.09195 6.96821C1.40394 7.09321 1.77832 6.96821 1.90311 6.65569C2.2151 5.96817 2.58948 5.28064 3.02626 4.65561C3.21345 4.4056 3.21345 3.96808 2.90147 3.78058C2.65188 3.59307 2.2775 3.65557 2.09031 3.90558C1.59113 4.59311 1.15435 5.34314 0.779965 6.15567C0.65517 6.46819 0.779965 6.8432 1.09195 6.96821Z" fill="#7F7E97"/>
<path d="M15.3185 16.9061C14.6945 17.3436 14.0706 17.7812 13.3218 18.0312C13.0098 18.1562 12.8226 18.5312 12.9474 18.8437C13.0722 19.1562 13.4466 19.3437 13.7586 19.2187C14.5697 18.9062 15.3185 18.4687 16.0049 17.9062C16.2545 17.7187 16.3169 17.3436 16.1297 17.0311C16.0049 16.7811 15.6305 16.7186 15.3185 16.9061Z" fill="#7F7E97"/>
<path d="M11.1379 18.6562C10.3891 18.7812 9.64036 18.7812 8.8292 18.6562C8.51721 18.5937 8.20523 18.8437 8.14283 19.2187C8.08043 19.5312 8.33002 19.8437 8.70441 19.9062C9.57797 20.0313 10.4515 20.0313 11.3251 19.9062C11.6371 19.8437 11.8867 19.5312 11.8867 19.2187C11.8243 18.8437 11.5123 18.5937 11.1379 18.6562Z" fill="#7F7E97"/>
<path d="M18.8751 13.031C18.5632 12.906 18.1888 13.031 18.064 13.3435C17.752 14.031 17.3776 14.7185 16.9408 15.3436C16.7536 15.5936 16.7536 16.0311 17.0656 16.2186C17.3776 16.4061 17.752 16.4061 17.9392 16.0936C18.5008 15.4061 18.9375 14.656 19.2495 13.8435C19.3743 13.531 19.1871 13.156 18.8751 13.031Z" fill="#7F7E97"/>
<path d="M10.0147 4.4056C9.64036 4.4056 9.39077 4.65561 9.39077 5.03063V10.0308C9.39077 10.4059 9.64036 10.6559 10.0147 10.6559H15.0065C15.3809 10.6559 15.6305 10.4059 15.6305 10.0308C15.6305 9.65582 15.3809 9.40581 15.0065 9.40581H10.6387V5.03063C10.6387 4.65561 10.3891 4.4056 10.0147 4.4056Z" fill="#7F7E97"/>
</g>
<defs>
<clipPath id="clip0_0_2442">
<rect width="20" height="20" fill="white"/>
</clipPath>
</defs>
</svg>
