<svg width="20" height="20" viewBox="0 0 20 20" fill="none" xmlns="http://www.w3.org/2000/svg">
<path d="M4.78579 15.3125H15.3519C17.0718 15.3125 18.471 13.9107 18.471 12.1875V3.125C18.471 1.40182 17.0718 0 15.3519 0H4.78579C3.06585 0 1.66666 1.40182 1.66666 3.125V16.875C1.66666 18.5982 3.06585 20 4.78579 20H15.3519C17.0718 20 18.471 18.5982 18.471 16.875C18.471 16.4435 18.1219 16.0937 17.6912 16.0937C17.2605 16.0937 16.9114 16.4435 16.9114 16.875C16.9114 17.7365 16.2118 18.4375 15.3519 18.4375H4.78579C3.9259 18.4375 3.22622 17.7365 3.22622 16.875C3.22622 16.0135 3.9259 15.3125 4.78579 15.3125ZM3.22622 3.125C3.22622 2.26349 3.9259 1.5625 4.78579 1.5625H15.3519C16.2118 1.5625 16.9114 2.26349 16.9114 3.125V12.1875C16.9114 13.049 16.2118 13.75 15.3519 13.75H4.78579C4.21801 13.75 3.68526 13.9027 3.22622 14.1693V3.125ZM6.38435 5.27344C6.38435 4.84192 6.73343 4.49219 7.16414 4.49219H13.0125C13.4432 4.49219 13.7923 4.84192 13.7923 5.27344C13.7923 5.70496 13.4432 6.05469 13.0125 6.05469H7.16414C6.73343 6.05469 6.38435 5.70496 6.38435 5.27344Z" fill="#7F7E97"/>
</svg>
