<svg width="20" height="20" viewBox="0 0 20 20" fill="none" xmlns="http://www.w3.org/2000/svg">
<path d="M19.1667 9.37479C19.1674 8.65706 18.9831 7.95019 18.63 7.3165C18.2769 6.68281 17.7659 6.14177 17.1421 5.74108C16.5182 5.3404 15.8007 5.09237 15.0527 5.01887C14.3047 4.94538 13.5493 5.04867 12.853 5.31964C12.1567 5.59061 11.5409 6.02094 11.06 6.57268C10.5791 7.12442 10.2478 7.78063 10.0953 8.48344C9.94276 9.18626 9.97376 9.9141 10.1855 10.6028C10.3973 11.2915 10.7833 11.9198 11.3095 12.4325V16.8746C11.3095 16.9812 11.3379 17.086 11.3923 17.1791C11.4466 17.2722 11.525 17.3505 11.62 17.4066C11.7149 17.4626 11.8234 17.4946 11.9349 17.4994C12.0465 17.5042 12.1574 17.4816 12.2573 17.4339L14.5833 16.323L16.9094 17.4339C17.0092 17.4816 17.1202 17.5042 17.2318 17.4994C17.3433 17.4946 17.4518 17.4626 17.5467 17.4066C17.6417 17.3505 17.7201 17.2722 17.7744 17.1791C17.8288 17.086 17.8572 16.9812 17.8572 16.8746V12.4325C18.6969 11.6167 19.1672 10.5185 19.1667 9.37479ZM14.5833 6.24989C15.2308 6.24989 15.8638 6.43316 16.4022 6.77653C16.9405 7.1199 17.3602 7.60794 17.6079 8.17894C17.8557 8.74995 17.9206 9.37826 17.7942 9.98443C17.6679 10.5906 17.3561 11.1474 16.8983 11.5844C16.4404 12.0215 15.8571 12.3191 15.222 12.4397C14.587 12.5602 13.9287 12.4983 13.3305 12.2618C12.7323 12.0253 12.221 11.6248 11.8613 11.1109C11.5015 10.597 11.3095 9.99284 11.3095 9.37479C11.3095 8.54602 11.6545 7.75119 12.2684 7.16515C12.8824 6.57912 13.7151 6.24989 14.5833 6.24989ZM14.8763 15.0652C14.7854 15.0218 14.6851 14.9992 14.5833 14.9992C14.4816 14.9992 14.3813 15.0218 14.2903 15.0652L12.6191 15.8637V13.327C13.2328 13.6053 13.9038 13.7497 14.5833 13.7497C15.2628 13.7497 15.9338 13.6053 16.5476 13.327V15.8637L14.8763 15.0652ZM10 14.3746C10 14.5404 9.93103 14.6994 9.80823 14.8166C9.68544 14.9338 9.5189 14.9996 9.34525 14.9996H2.14287C1.79556 14.9996 1.46248 14.8679 1.21689 14.6335C0.971311 14.3991 0.833344 14.0812 0.833344 13.7497V3.74996C0.833344 3.41845 0.971311 3.10052 1.21689 2.86611C1.46248 2.63169 1.79556 2.5 2.14287 2.5H16.5476C16.8949 2.5 17.228 2.63169 17.4736 2.86611C17.7192 3.10052 17.8572 3.41845 17.8572 3.74996C17.8572 3.91572 17.7882 4.07468 17.6654 4.19189C17.5426 4.3091 17.376 4.37494 17.2024 4.37494C17.0287 4.37494 16.8622 4.3091 16.7394 4.19189C16.6166 4.07468 16.5476 3.91572 16.5476 3.74996H2.14287V13.7497H9.34525C9.5189 13.7497 9.68544 13.8155 9.80823 13.9327C9.93103 14.0499 10 14.2089 10 14.3746ZM8.69049 9.99978C8.69049 10.1655 8.6215 10.3245 8.49871 10.4417C8.37592 10.5589 8.20938 10.6248 8.03572 10.6248H4.76191C4.58826 10.6248 4.42172 10.5589 4.29893 10.4417C4.17614 10.3245 4.10715 10.1655 4.10715 9.99978C4.10715 9.83402 4.17614 9.67505 4.29893 9.55785C4.42172 9.44064 4.58826 9.37479 4.76191 9.37479H8.03572C8.20938 9.37479 8.37592 9.44064 8.49871 9.55785C8.6215 9.67505 8.69049 9.83402 8.69049 9.99978ZM8.69049 7.49985C8.69049 7.66561 8.6215 7.82457 8.49871 7.94178C8.37592 8.05899 8.20938 8.12483 8.03572 8.12483H4.76191C4.58826 8.12483 4.42172 8.05899 4.29893 7.94178C4.17614 7.82457 4.10715 7.66561 4.10715 7.49985C4.10715 7.3341 4.17614 7.17513 4.29893 7.05792C4.42172 6.94072 4.58826 6.87487 4.76191 6.87487H8.03572C8.20938 6.87487 8.37592 6.94072 8.49871 7.05792C8.6215 7.17513 8.69049 7.3341 8.69049 7.49985Z" fill="#7F7E97"/>
</svg>
