<svg width="20" height="20" viewBox="0 0 20 20" fill="none" xmlns="http://www.w3.org/2000/svg">
<path d="M15.701 9.00506H15.2923V5.25384C15.2923 4.97633 15.1859 4.71018 14.9966 4.51395C14.8074 4.31772 14.5506 4.20748 14.2829 4.20748H11.255C11.2231 3.57767 10.9787 2.97952 10.5645 2.51761C10.1503 2.05569 9.59271 1.75939 8.98915 1.6805C8.64393 1.64366 8.29509 1.68103 7.96444 1.7903C7.63378 1.89957 7.32843 2.07837 7.06745 2.31554C6.80648 2.5527 6.59551 2.84313 6.44771 3.16866C6.29992 3.4942 6.2185 3.84784 6.20852 4.20748H2.67596C2.40828 4.20748 2.15156 4.31772 1.96227 4.51395C1.77299 4.71018 1.66666 4.97633 1.66666 5.25384V9.52825H3.08473C3.47304 9.51655 3.85189 9.65362 4.14886 9.91324C4.44584 10.1729 4.64012 10.5368 4.69457 10.9356C4.71421 11.1544 4.68933 11.375 4.62152 11.5832C4.55371 11.7914 4.4445 11.9825 4.30094 12.1442C4.15985 12.3077 3.98724 12.4388 3.79427 12.5289C3.6013 12.619 3.39225 12.6662 3.18061 12.6673H1.66666V17.287C1.66666 17.5646 1.77299 17.8307 1.96227 18.0269C2.15156 18.2232 2.40828 18.3334 2.67596 18.3334H14.2829C14.5506 18.3334 14.8074 18.2232 14.9966 18.0269C15.1859 17.8307 15.2923 17.5646 15.2923 17.287V14.2369H15.7969C16.1511 14.2388 16.5017 14.1634 16.8259 14.0156C17.1501 13.8678 17.4407 13.6508 17.6787 13.3789C17.9167 13.107 18.0968 12.7862 18.2073 12.4373C18.3178 12.0885 18.3563 11.7194 18.3202 11.3542C18.2384 10.6973 17.9261 10.0947 17.443 9.66143C16.9599 9.22813 16.3398 8.99447 15.701 9.00506ZM16.9172 12.6673C16.7761 12.8309 16.6035 12.9619 16.4106 13.0521C16.2176 13.1422 16.0085 13.1893 15.7969 13.1905H14.2829V17.287H2.67596V13.7137H3.18061C3.53479 13.7156 3.88538 13.6402 4.20959 13.4924C4.5338 13.3446 4.82436 13.1277 5.06237 12.8557C5.30038 12.5838 5.4805 12.263 5.59103 11.9142C5.70155 11.5653 5.74 11.1962 5.70387 10.831C5.62208 10.1741 5.30982 9.57156 4.82671 9.13825C4.34359 8.70495 3.72346 8.47129 3.08473 8.48188H2.67596V5.25384H7.21782V4.29642C7.21896 4.07701 7.26446 3.86028 7.35138 3.66022C7.43831 3.46016 7.56472 3.28123 7.72248 3.13495C7.87841 2.98612 8.06275 2.8729 8.26356 2.8026C8.46437 2.7323 8.67718 2.7065 8.88822 2.72687C9.27286 2.78331 9.62395 2.98473 9.87438 3.29261C10.1248 3.60049 10.257 3.99325 10.2457 4.39582V5.25384H14.2829V10.0514H15.701C16.0893 10.0397 16.4682 10.1768 16.7652 10.4364C17.0621 10.6961 17.2564 11.06 17.3109 11.4588C17.3305 11.6776 17.3056 11.8982 17.2378 12.1064C17.17 12.3146 17.0608 12.5057 16.9172 12.6673Z" fill="#7F7E97"/>
</svg>
