<svg width="30" height="30" viewBox="0 0 30 30" fill="none" xmlns="http://www.w3.org/2000/svg">
<path d="M26.75 5H3.25C2.14544 5 1.25 5.95513 1.25 7.13333V22.8667C1.25 24.0449 2.14544 25 3.25 25H26.75C27.8546 25 28.75 24.0449 28.75 22.8667V7.13333C28.75 5.95513 27.8546 5 26.75 5V5ZM15 16.7917L3.465 6.33333H26.535L15 16.7917ZM2.5 7.20833L10.0308 14.0362L2.5 22.6869V7.20833ZM10.9841 14.9006L14.5952 18.1746C14.7119 18.2804 14.8559 18.3333 15 18.3333C15.1441 18.3333 15.2881 18.2804 15.4048 18.1746L19.0159 14.9006L26.6471 23.6667H3.35294L10.9841 14.9006ZM19.9692 14.0362L27.5 7.20833V22.6869L19.9692 14.0362Z" fill="white"/>
</svg>
