<svg width="94" height="90" viewBox="0 0 94 90" fill="none" xmlns="http://www.w3.org/2000/svg">
<path d="M66.8667 22.6328H1.13333C0.50745 22.6328 0 23.1403 0 23.7661V69.0995C0 69.7254 0.50745 70.2328 1.13333 70.2328H21.5979C21.6319 70.6102 21.6875 70.9819 21.7543 71.3503L15.538 78.7589C15.1354 79.2381 15.1976 79.953 15.6768 80.3556C15.8118 80.4691 15.9716 80.5494 16.1432 80.5903L22.9863 82.2246L25.7845 88.6846C26.0332 89.2589 26.7005 89.523 27.2748 89.2742C27.4366 89.2042 27.5797 89.0974 27.693 88.9623L33.8991 81.5661C33.9331 81.5661 33.966 81.5661 34 81.5661C34.034 81.5661 34.0669 81.5661 34.1009 81.5661L40.307 88.9623C40.709 89.442 41.4239 89.5049 41.9036 89.1028C42.0386 88.9896 42.1454 88.8464 42.2155 88.6846L45.0137 82.2246L51.8568 80.5903C52.4657 80.4453 52.8418 79.8341 52.6967 79.2252C52.6558 79.0537 52.5755 78.8939 52.462 78.7589L46.2457 71.3503C46.3125 70.9819 46.3681 70.6102 46.4021 70.2328H66.8667C67.4926 70.2328 68 69.7254 68 69.0995V23.7661C68 23.1401 67.4926 22.6328 66.8667 22.6328ZM27.1354 86.0995L24.8404 80.8068C24.6986 80.4796 24.411 80.2382 24.0641 80.1551L18.4541 78.8144L22.5227 73.9649C22.5443 74.0147 22.5726 74.0601 22.5941 74.1099C22.7415 74.4499 22.9013 74.7729 23.0781 75.0937C23.1506 75.2274 23.2277 75.3589 23.3047 75.4892C23.4604 75.7483 23.625 76.0022 23.7989 76.2508C23.9201 76.4242 24.0471 76.5908 24.1774 76.7608C24.3293 76.9535 24.4857 77.1416 24.65 77.3275C24.8143 77.5133 25.0059 77.7185 25.1951 77.9066C25.3345 78.046 25.4785 78.1809 25.6258 78.3135C25.7482 78.4268 25.8581 78.5458 25.9862 78.6535C26.1143 78.7611 26.2344 78.8337 26.3568 78.9289C26.4123 78.9719 26.4599 79.0218 26.5166 79.0637C26.6186 79.1408 26.7263 79.2077 26.8305 79.2813C26.9937 79.3947 27.1547 79.5171 27.3235 79.6213C27.6454 79.8276 27.9775 80.0157 28.3141 80.188C28.4433 80.2537 28.5747 80.3138 28.7062 80.375C29.0084 80.5171 29.3125 80.6463 29.6185 80.7626C29.7069 80.7955 29.7942 80.8329 29.8826 80.8635C30.3119 81.0143 30.7493 81.1411 31.1927 81.2431L31.2052 81.2465L27.1354 86.0995ZM36.1284 79.0592C35.6086 79.169 35.0812 79.2384 34.5508 79.2666H34.5361C34.357 79.2757 34.1779 79.2881 33.9977 79.2881C33.8175 79.2881 33.6385 79.2757 33.4594 79.2666H33.4447C32.9154 79.2383 32.3891 79.1693 31.8705 79.0603L31.7753 79.0411C31.5735 78.9969 31.3741 78.9425 31.1769 78.8858C31.0941 78.862 31.0103 78.8405 30.9287 78.8144C30.787 78.7702 30.6476 78.7181 30.5082 78.6682C30.3688 78.6183 30.2362 78.5696 30.1025 78.5141C30.0197 78.4789 29.9381 78.4415 29.8565 78.4007C29.6707 78.3169 29.4859 78.2319 29.3057 78.1378L29.2151 78.0879C28.7479 77.838 28.3008 77.5523 27.8777 77.2334C27.642 77.0577 27.4244 76.8639 27.2102 76.6724C26.9569 76.4464 26.7151 76.2077 26.486 75.9573C26.3953 75.8598 26.2979 75.7669 26.2117 75.666C25.8953 75.2937 25.6065 74.8986 25.3481 74.4839C25.3096 74.4227 25.2767 74.3581 25.2348 74.2947C24.9938 73.8921 24.7817 73.4727 24.6001 73.0401C24.5843 73.0015 24.5661 72.963 24.5514 72.9267C24.3507 72.4309 24.1892 71.9202 24.0686 71.399C24.0686 71.3786 24.0527 71.3627 24.0471 71.3423C23.8825 70.6061 23.7996 69.8538 23.8 69.0995C23.7966 63.4661 28.3605 58.8968 33.9938 58.8932C39.6271 58.8898 44.1965 63.4538 44.2 69.087C44.2004 69.85 44.1153 70.6106 43.9461 71.3547C43.9405 71.3739 43.9291 71.3909 43.9246 71.4102C43.8042 71.9308 43.6431 72.4412 43.4429 72.9368C43.4271 72.9765 43.4089 73.0161 43.3919 73.0501C43.2109 73.4801 42.9995 73.8967 42.7595 74.2968C42.7221 74.3603 42.6881 74.4271 42.6462 74.4906C42.3878 74.9047 42.0995 75.2994 41.7837 75.6715C41.6987 75.7713 41.6024 75.8619 41.5129 75.9594C41.2807 76.2121 41.0359 76.4531 40.7796 76.6813C40.5643 76.8729 40.3501 77.0667 40.1155 77.2412C39.8809 77.4157 39.6712 77.5631 39.4423 77.7093L39.4287 77.7172C39.2235 77.8475 39.0139 77.9677 38.8008 78.081C38.7589 78.1037 38.7181 78.1275 38.6761 78.149C38.505 78.2385 38.3361 78.319 38.1559 78.3972C38.0653 78.438 37.9757 78.4799 37.8839 78.5173C37.757 78.5706 37.6278 78.6171 37.4986 78.6635C37.3694 78.71 37.2096 78.7701 37.0623 78.8154C36.9841 78.8403 36.9047 78.8619 36.8254 78.8845C36.6248 78.9412 36.4231 78.9979 36.2191 79.0409L36.1284 79.0592ZM49.5459 78.811L43.9359 80.1517C43.589 80.2348 43.3014 80.4762 43.1596 80.8034L40.8646 86.0995L36.7948 81.2499H36.805C37.2501 81.1482 37.6891 81.0211 38.1197 80.8691C38.2047 80.8397 38.2863 80.8045 38.3713 80.7739C38.6875 80.6538 38.9991 80.5223 39.3051 80.3761C39.4298 80.3183 39.5545 80.2628 39.6769 80.1993C40.0169 80.0225 40.3569 79.831 40.6833 79.6213C40.8408 79.5216 40.9915 79.4094 41.1445 79.3017C41.2579 79.2235 41.3712 79.1521 41.4845 79.0694C41.5446 79.0241 41.5979 78.9708 41.6568 78.9243C41.7701 78.8314 41.9016 78.7532 42.0172 78.6557C42.1328 78.5583 42.2507 78.4291 42.3708 78.3225C42.5204 78.1865 42.6677 78.0494 42.8105 77.9077C42.9971 77.7212 43.1777 77.5292 43.3523 77.332C43.5166 77.1461 43.673 76.958 43.826 76.7653C43.9563 76.5987 44.0833 76.4253 44.2045 76.2553C44.3791 76.0083 44.5445 75.7544 44.6975 75.496C44.7769 75.3645 44.8539 75.2319 44.9242 75.0971C45.1003 74.7775 45.2608 74.4506 45.4059 74.1167C45.4263 74.0589 45.4557 74.0125 45.4773 73.9615L49.5459 78.811ZM65.7333 67.9661H46.4089C45.7939 61.1123 39.7391 56.0547 32.8852 56.6698C26.8837 57.2084 22.1275 61.9646 21.5889 67.9661H2.26667V24.8995H65.7333V67.9661Z" fill="#807AF9"/>
<path d="M5.66667 27.1663C5.04079 27.1663 4.53334 27.6737 4.53334 28.2996V32.8329H6.80001V29.4329H10.2V27.1663H5.66667Z" fill="white"/>
<path d="M62.3333 27.1663H57.8V29.4329H61.2V32.8329H63.4667V28.2996C63.4667 27.6736 62.9592 27.1663 62.3333 27.1663Z" fill="white"/>
<path d="M61.2 60.0329V63.4329H57.8V65.6996H62.3333C62.9592 65.6996 63.4667 65.1921 63.4667 64.5662V60.0329H61.2Z" fill="white"/>
<path d="M6.80001 63.4329V60.0329H4.53334V64.5662C4.53334 65.1921 5.04079 65.6996 5.66667 65.6996H10.2V63.4329H6.80001Z" fill="white"/>
<path d="M47.6 35.0996H20.4V37.3662H47.6V35.0996Z" fill="white"/>
<path d="M54.4 41.8995H13.6V44.1662H54.4V41.8995Z" fill="white"/>
<path d="M34 61.1663C29.6185 61.1663 26.0667 64.7181 26.0667 69.0996C26.0716 73.4789 29.6207 77.028 34 77.0329C38.3815 77.0329 41.9333 73.4811 41.9333 69.0996C41.9333 64.7181 38.3815 61.1663 34 61.1663ZM34 74.7663C30.8705 74.7663 28.3333 72.2291 28.3333 69.0996C28.337 65.9716 30.872 63.4366 34 63.4329C37.1296 63.4329 39.6667 65.97 39.6667 69.0996C39.6667 72.2291 37.1296 74.7663 34 74.7663Z" fill="#5751E1"/>
<path d="M94 13.4234C93.4937 13.8003 93.2405 14.1772 92.9873 14.3029C91.7215 14.8055 90.4557 15.308 89.1899 15.8106C87.2911 16.4388 86.1519 17.6953 85.8987 19.7056C85.6456 21.339 85.3924 22.9724 85.0127 24.6058C84.8861 25.1083 84.5063 25.8622 84.1266 25.9879C83.3671 26.1135 83.3671 25.234 83.2405 24.7314C82.7342 23.2237 82.2278 21.5903 81.8481 20.0825C81.2152 17.9466 79.8228 16.8158 77.5443 16.8158C76.6582 16.8158 75.8987 16.6901 75.0127 16.5645C74.5063 16.5645 74.2532 16.3132 74 16.0619C74.2532 15.8106 74.3797 15.4337 74.6329 15.308C75.8987 14.8055 77.2911 14.3029 78.557 13.9259C79.8228 13.549 80.7089 12.6695 80.962 11.413C81.4684 9.40273 81.8481 7.39241 82.3544 5.50774C82.6076 4.87951 82.3544 4 83.2405 4C84.1266 4 84 4.75387 84.1266 5.25645C84.5063 7.01548 84.8861 8.64886 85.3924 10.4079C86.0253 12.6695 86.5316 13.0464 88.9367 13.0464C90.2025 13.0464 91.5949 12.9208 92.8608 12.9208C92.9873 12.9208 93.3671 13.1721 94 13.4234Z" fill="#434087"/>
<path d="M77 4.71168C76.7468 4.90015 76.6203 5.08862 76.4937 5.15144C75.8608 5.40273 75.2278 5.65402 74.5949 5.90531C73.6456 6.21942 73.0759 6.84765 72.9494 7.85281C72.8228 8.6695 72.6962 9.48619 72.5063 10.3029C72.443 10.5542 72.2532 10.9311 72.0633 10.9939C71.6835 11.0568 71.6835 10.617 71.6203 10.3657C71.3671 9.61184 71.1139 8.79514 70.9241 8.04127C70.6076 6.97329 69.9114 6.40789 68.7722 6.40789C68.3291 6.40789 67.9494 6.34507 67.5063 6.28225C67.2532 6.28225 67.1266 6.1566 67 6.03096C67.1266 5.90531 67.1899 5.71684 67.3165 5.65402C67.9494 5.40273 68.6456 5.15144 69.2785 4.96297C69.9114 4.77451 70.3544 4.33475 70.481 3.70652C70.7342 2.70137 70.9241 1.69621 71.1772 0.753869C71.3038 0.439757 71.1772 0 71.6203 0C72.0633 0 72 0.376935 72.0633 0.628225C72.2532 1.50774 72.443 2.32443 72.6962 3.20395C73.0127 4.33475 73.2658 4.52322 74.4684 4.52322C75.1013 4.52322 75.7975 4.46039 76.4304 4.46039C76.4937 4.46039 76.6835 4.58604 77 4.71168Z" fill="#6663A9"/>
</svg>
