<svg width="84" height="81" viewBox="0 0 84 81" fill="none" xmlns="http://www.w3.org/2000/svg">
<g clip-path="url(#clip0_0_5600)">
<path d="M24.8327 26.1361C24.6075 25.9108 24.295 25.7812 23.9766 25.7812C23.6581 25.7812 23.3457 25.9107 23.1204 26.1361C22.8952 26.3613 22.7656 26.6737 22.7656 26.9922C22.7656 27.3107 22.8952 27.6231 23.1204 27.8482C23.3457 28.0736 23.6581 28.2031 23.9766 28.2031C24.295 28.2031 24.6075 28.0736 24.8327 27.8482C25.0579 27.6231 25.1875 27.3107 25.1875 26.9922C25.1875 26.6737 25.0579 26.3613 24.8327 26.1361Z" fill="#5751E1"/>
<path d="M19.5014 25.7812H14.6367C13.9679 25.7812 13.4258 26.3235 13.4258 26.9922C13.4258 27.6609 13.9679 28.2031 14.6367 28.2031H19.5014C20.1702 28.2031 20.7124 27.6609 20.7124 26.9922C20.7124 26.3235 20.1702 25.7812 19.5014 25.7812Z" fill="#5751E1"/>
<path d="M20.4727 32.5625H14.6367C13.9679 32.5625 13.4258 33.1048 13.4258 33.7734C13.4258 34.4421 13.9679 34.9844 14.6367 34.9844H20.4727C21.1415 34.9844 21.6836 34.4421 21.6836 33.7734C21.6836 33.1048 21.1415 32.5625 20.4727 32.5625Z" fill="#5751E1"/>
<path d="M61.5326 44.2018C61.5327 44.2014 61.5329 44.2012 61.5331 44.2008L53.5409 37.977C53.5352 37.9726 53.5291 37.9691 53.5234 37.9647V36.6797C53.5234 36.011 52.9813 35.4688 52.3125 35.4688C51.6437 35.4688 51.1016 36.011 51.1016 36.6797V53.1081C51.1016 53.1155 51.1025 53.1226 51.1027 53.13L41.0828 63.1499L39.9226 62.0961C38.1093 60.4487 35.8997 59.3505 33.5317 58.8917L36.6758 55.7476C37.1487 55.2747 37.1487 54.508 36.6758 54.035L32.6082 49.9673L50.3344 42.4101C50.7044 42.2523 50.972 41.9211 51.0484 41.5262C51.1248 41.1313 51.0002 40.7242 50.7158 40.4398L44.9276 34.6515C45.4175 33.8519 45.6802 32.9311 45.6802 31.9696C45.6802 30.5947 45.1448 29.3023 44.1727 28.33C43.2006 27.3579 41.908 26.8225 40.5331 26.8225C39.5716 26.8225 38.6508 27.0852 37.8512 27.5751L32.063 21.7869C31.7784 21.5023 31.3715 21.3773 30.9763 21.4543C30.5813 21.5309 30.2502 21.7986 30.0925 22.1687L21.9319 41.3348L17.5396 45.727C16.3054 46.9612 15.6256 48.6022 15.6256 50.3477C15.6256 52.0931 16.3054 53.734 17.5396 54.9682C18.7738 56.2024 20.4148 56.8822 22.1603 56.8822C23.9057 56.8822 25.5467 56.2025 26.7809 54.9682L27.2427 54.5064L31.3906 58.6543C31.2606 58.6506 31.1303 58.6479 30.9998 58.6479C27.6933 58.6479 24.5245 59.8723 22.0771 62.0957L20.9169 63.1496L10.897 53.1297C10.8971 53.1223 10.8981 53.1151 10.8981 53.1076V21.4219H24.459C25.1278 21.4219 25.6699 20.8796 25.6699 20.2109C25.6699 19.5423 25.1278 19 24.459 19H9.6875C9.0187 19 8.47656 19.5423 8.47656 20.2109V37.7712C8.46615 37.7791 8.45513 37.7859 8.44496 37.7941L0.45277 44.2121C0.452648 44.2118 0.452891 44.2123 0.45277 44.2121C0.176797 44.434 0 44.7746 0 45.1562V74.8242C0 78.2295 2.77038 81 6.17578 81H55.8242C59.2296 81 62 78.2295 62 74.8242V45.1562C62 44.768 61.8167 44.4234 61.5326 44.2018ZM53.5234 41.0329L58.9635 45.2692L53.5234 50.7092V41.0329ZM40.5332 29.2447C41.2611 29.2447 41.9455 29.5281 42.4603 30.0429C42.975 30.5576 43.2584 31.2419 43.2584 31.9699C43.2584 32.2702 43.2076 32.5621 43.1147 32.8388L39.6643 29.3883C39.941 29.2954 40.2329 29.2447 40.5332 29.2447ZM31.6185 24.7676L36.8922 30.0412C36.8927 30.0417 36.8932 30.0423 36.8936 30.0429C36.8941 30.0435 36.8947 30.0439 36.8953 30.0444L42.4602 35.6092L47.7361 40.8852L45.1653 41.9812L30.5235 27.3394L31.6185 24.7676ZM29.5006 29.7417L42.7638 43.0049L30.7629 48.1214L24.3889 41.7473L29.5006 29.7417ZM25.0686 53.256C24.2919 54.0328 23.2591 54.4606 22.1605 54.4606C21.062 54.4606 20.0292 54.0328 19.2523 53.256C18.4755 52.4793 18.0477 51.4465 18.0477 50.3479C18.0477 49.2493 18.4755 48.2165 19.2523 47.4397L22.9543 43.7378L28.7703 49.5544L25.0686 53.256ZM28.9555 52.7941L30.4827 51.267L34.107 54.8913L32.5798 56.4185L28.9555 52.7941ZM8.47656 40.8747V50.7094L3.02214 45.2549L8.47656 40.8747ZM4.52055 78.0452C4.48628 78.0763 4.45468 78.1094 4.42477 78.1433C3.23478 77.513 2.42188 76.2621 2.42188 74.8242V48.0798L19.1225 64.7803L4.52055 78.0452ZM7.53566 78.5781L11.5347 74.9453H20.4233C21.0921 74.9453 21.6342 74.4031 21.6342 73.7344C21.6342 73.0657 21.0921 72.5234 20.4233 72.5234H14.2007L23.7059 63.8885C27.8643 60.111 34.1358 60.111 38.2942 63.8885L54.4643 78.5781H7.53566ZM59.5781 74.8242C59.5781 76.2621 58.7652 77.513 57.5752 78.1433C57.5453 78.1092 57.5137 78.0763 57.4795 78.0452L42.8776 64.7803L59.5781 48.0798V74.8242Z" fill="#807AF9"/>
<path d="M53.2167 19.4025C52.7438 18.9298 51.977 18.9298 51.5042 19.4025L46.6125 24.2942C46.1396 24.7671 46.1396 25.5339 46.6125 26.0069C46.849 26.2432 47.1588 26.3616 47.4687 26.3616C47.7786 26.3616 48.0886 26.2432 48.325 26.0069L53.2167 21.1152C53.6896 20.6423 53.6896 19.8755 53.2167 19.4025Z" fill="white"/>
<path d="M42.917 19C42.2482 19 41.7061 19.5423 41.7061 20.2109V22.6433C41.7061 23.312 42.2482 23.8543 42.917 23.8543C43.5858 23.8543 44.1279 23.312 44.1279 22.6433V20.2109C44.1279 19.5423 43.5858 19 42.917 19Z" fill="white"/>
<path d="M52.3956 28.3873H49.8818C49.213 28.3873 48.6709 28.9296 48.6709 29.5983C48.6709 30.2669 49.213 30.8092 49.8818 30.8092H52.3956C53.0644 30.8092 53.6066 30.2669 53.6066 29.5983C53.6066 28.9296 53.0644 28.3873 52.3956 28.3873Z" fill="white"/>
<path d="M26.2448 72.8782C26.0184 72.653 25.7071 72.5234 25.3887 72.5234C25.069 72.5234 24.7578 72.6529 24.5313 72.8782C24.3061 73.1035 24.1777 73.4159 24.1777 73.7344C24.1777 74.0529 24.3061 74.3653 24.5313 74.5904C24.7578 74.8157 25.0702 74.9453 25.3887 74.9453C25.7071 74.9453 26.0184 74.8157 26.2448 74.5904C26.47 74.3653 26.5996 74.0529 26.5996 73.7344C26.5996 73.4159 26.47 73.1035 26.2448 72.8782Z" fill="white"/>
</g>
<path d="M84 13.4234C83.4937 13.8003 83.2405 14.1772 82.9873 14.3029C81.7215 14.8055 80.4557 15.308 79.1899 15.8106C77.2911 16.4388 76.1519 17.6953 75.8987 19.7056C75.6456 21.339 75.3924 22.9724 75.0127 24.6058C74.8861 25.1083 74.5063 25.8622 74.1266 25.9879C73.3671 26.1135 73.3671 25.234 73.2405 24.7314C72.7342 23.2237 72.2278 21.5903 71.8481 20.0825C71.2152 17.9466 69.8228 16.8158 67.5443 16.8158C66.6582 16.8158 65.8987 16.6901 65.0127 16.5645C64.5063 16.5645 64.2532 16.3132 64 16.0619C64.2532 15.8106 64.3797 15.4337 64.6329 15.308C65.8987 14.8055 67.2911 14.3029 68.557 13.9259C69.8228 13.549 70.7089 12.6695 70.962 11.413C71.4684 9.40273 71.8481 7.39241 72.3544 5.50774C72.6076 4.87951 72.3544 4 73.2405 4C74.1266 4 74 4.75387 74.1266 5.25645C74.5063 7.01548 74.8861 8.64886 75.3924 10.4079C76.0253 12.6695 76.5316 13.0464 78.9367 13.0464C80.2025 13.0464 81.5949 12.9208 82.8608 12.9208C82.9873 12.9208 83.3671 13.1721 84 13.4234Z" fill="#434087"/>
<path d="M67 4.71168C66.7468 4.90015 66.6203 5.08862 66.4937 5.15144C65.8608 5.40273 65.2278 5.65402 64.5949 5.90531C63.6456 6.21942 63.0759 6.84765 62.9494 7.85281C62.8228 8.6695 62.6962 9.48619 62.5063 10.3029C62.443 10.5542 62.2532 10.9311 62.0633 10.9939C61.6835 11.0568 61.6835 10.617 61.6203 10.3657C61.3671 9.61184 61.1139 8.79514 60.9241 8.04127C60.6076 6.97329 59.9114 6.40789 58.7722 6.40789C58.3291 6.40789 57.9494 6.34507 57.5063 6.28225C57.2532 6.28225 57.1266 6.1566 57 6.03096C57.1266 5.90531 57.1899 5.71684 57.3165 5.65402C57.9494 5.40273 58.6456 5.15144 59.2785 4.96297C59.9114 4.77451 60.3544 4.33475 60.481 3.70652C60.7342 2.70137 60.9241 1.69621 61.1772 0.753869C61.3038 0.439757 61.1772 0 61.6203 0C62.0633 0 62 0.376935 62.0633 0.628225C62.2532 1.50774 62.443 2.32443 62.6962 3.20395C63.0127 4.33475 63.2658 4.52322 64.4684 4.52322C65.1013 4.52322 65.7975 4.46039 66.4304 4.46039C66.4937 4.46039 66.6835 4.58604 67 4.71168Z" fill="#6663A9"/>
<defs>
<clipPath id="clip0_0_5600">
<rect width="62" height="62" fill="white" transform="translate(0 19)"/>
</clipPath>
</defs>
</svg>
