<svg width="94" height="89" viewBox="0 0 94 89" fill="none" xmlns="http://www.w3.org/2000/svg">
<path d="M77.4138 35.1896L59.7118 22.2369C59.4201 22.0221 59.0478 21.9485 58.6963 22.0362L37.4309 27.4301C36.7799 27.596 36.3867 28.2581 36.5526 28.9089C36.6221 29.1818 36.7843 29.4222 37.0113 29.5888L42.6422 33.6996L41.426 39.8657C40.7631 43.3075 46.2908 48.7562 53.74 50.2034C55.0466 50.4556 56.3742 50.5819 57.7048 50.5805C59.7448 50.5932 61.7735 50.277 63.7129 49.644C66.6926 48.6529 68.681 46.9987 69.0277 45.2292L70.244 39.0812L77 37.3725C77.6509 37.2066 78.0441 36.5445 77.8782 35.8936C77.8087 35.6208 77.6465 35.3804 77.4196 35.2138L77.4138 35.1896ZM66.6563 44.7611C66.5164 45.4726 65.1969 46.5854 62.9529 47.3334C60.1195 48.2203 57.1089 48.3835 54.1962 47.8077C47.3551 46.4759 43.5362 41.8483 43.8585 40.3281L44.8376 35.287L54.7132 42.5355C54.9212 42.6888 55.1724 42.7718 55.4308 42.7727C55.5337 42.7734 55.6361 42.759 55.7348 42.7302L67.6293 39.7201L66.6563 44.7611ZM55.7105 40.2368L40.5383 29.1449L58.7388 24.5355L73.8927 35.6212L55.7105 40.2368Z" fill="#807AF9"/>
<path d="M29.8113 50.8117C29.4391 51.0265 29.2079 51.4218 29.2031 51.8516V73.5487C29.2079 73.9784 29.4391 74.3736 29.8113 74.5886C29.9941 74.7017 30.2044 74.7626 30.4194 74.7649C30.6159 74.7667 30.81 74.7208 30.9849 74.6311L51.7212 63.7764C52.3157 63.4636 52.544 62.7282 52.2313 62.1339C52.1167 61.9162 51.9388 61.7384 51.7212 61.6238L31.0031 50.7692C30.6258 50.5742 30.174 50.5903 29.8113 50.8117ZM31.6357 53.8522L48.5348 62.7001L31.654 71.5418L31.6357 53.8522Z" fill="#5751E1"/>
<path d="M74.2638 81.5515H68.0186C68.1268 81.2113 68.1821 80.8564 68.1828 80.4995V52.3625C68.1828 51.6908 67.6382 51.1462 66.9665 51.1462C66.2948 51.1462 65.7503 51.6908 65.7503 52.3625V80.4994C65.7402 81.0904 65.253 81.5614 64.662 81.5513C64.6618 81.5513 64.6619 81.5513 64.6617 81.5513H10.8933C10.3023 81.5615 9.81493 81.0907 9.80477 80.4997C9.80477 80.4995 9.80477 80.4995 9.80477 80.4994V43.6847C9.81478 43.0937 10.302 42.6227 10.893 42.6328H10.8933H37.7775C38.4492 42.6328 38.9938 42.0882 38.9938 41.4165C38.9938 40.7448 38.4492 40.2002 37.7775 40.2002H10.8933C8.9602 40.1935 7.38573 41.7516 7.37238 43.6846V80.4992C7.3731 80.8563 7.4284 81.211 7.53653 81.5512H1.29146C0.619759 81.5512 0.0751953 82.0958 0.0751953 82.7675V83.0715C0.0751953 85.808 2.22791 88.8485 5.11633 88.8485H70.4388C73.3273 88.8485 75.48 85.808 75.48 83.0715V82.7675C75.48 82.0961 74.9354 81.5515 74.2638 81.5515ZM70.4388 86.4163H5.11633C4.06436 86.4163 2.9941 85.2974 2.63531 83.9839H72.9199C72.5611 85.2974 71.4908 86.4163 70.4388 86.4163Z" fill="white"/>
<path d="M94 13.4234C93.4937 13.8003 93.2405 14.1772 92.9873 14.3029C91.7215 14.8055 90.4557 15.308 89.1899 15.8106C87.2911 16.4388 86.1519 17.6953 85.8987 19.7056C85.6456 21.339 85.3924 22.9724 85.0127 24.6058C84.8861 25.1083 84.5063 25.8622 84.1266 25.9879C83.3671 26.1135 83.3671 25.234 83.2405 24.7314C82.7342 23.2237 82.2278 21.5903 81.8481 20.0825C81.2152 17.9466 79.8228 16.8158 77.5443 16.8158C76.6582 16.8158 75.8987 16.6901 75.0127 16.5645C74.5063 16.5645 74.2532 16.3132 74 16.0619C74.2532 15.8106 74.3797 15.4337 74.6329 15.308C75.8987 14.8055 77.2911 14.3029 78.557 13.9259C79.8228 13.549 80.7089 12.6695 80.962 11.413C81.4684 9.40273 81.8481 7.39241 82.3544 5.50774C82.6076 4.87951 82.3544 4 83.2405 4C84.1266 4 84 4.75387 84.1266 5.25645C84.5063 7.01548 84.8861 8.64886 85.3924 10.4079C86.0253 12.6695 86.5316 13.0464 88.9367 13.0464C90.2025 13.0464 91.5949 12.9208 92.8608 12.9208C92.9873 12.9208 93.3671 13.1721 94 13.4234Z" fill="#434087"/>
<path d="M77 4.71168C76.7468 4.90015 76.6203 5.08862 76.4937 5.15144C75.8608 5.40273 75.2278 5.65402 74.5949 5.90531C73.6456 6.21942 73.0759 6.84765 72.9494 7.85281C72.8228 8.6695 72.6962 9.48619 72.5063 10.3029C72.443 10.5542 72.2532 10.9311 72.0633 10.9939C71.6835 11.0568 71.6835 10.617 71.6203 10.3657C71.3671 9.61184 71.1139 8.79514 70.9241 8.04127C70.6076 6.97329 69.9114 6.40789 68.7722 6.40789C68.3291 6.40789 67.9494 6.34507 67.5063 6.28225C67.2532 6.28225 67.1266 6.1566 67 6.03096C67.1266 5.90531 67.1899 5.71684 67.3165 5.65402C67.9494 5.40273 68.6456 5.15144 69.2785 4.96297C69.9114 4.77451 70.3544 4.33475 70.481 3.70652C70.7342 2.70137 70.9241 1.69621 71.1772 0.753869C71.3038 0.439757 71.1772 0 71.6203 0C72.0633 0 72 0.376935 72.0633 0.628225C72.2532 1.50774 72.443 2.32443 72.6962 3.20395C73.0127 4.33475 73.2658 4.52322 74.4684 4.52322C75.1013 4.52322 75.7975 4.46039 76.4304 4.46039C76.4937 4.46039 76.6835 4.58604 77 4.71168Z" fill="#6663A9"/>
</svg>
