<svg width="94" height="93" viewBox="0 0 94 93" fill="none" xmlns="http://www.w3.org/2000/svg">
<path d="M20.9844 45.0545C20.303 45.0545 19.75 44.5015 19.75 43.8201V39.3492C19.75 38.9616 19.9302 38.5987 20.2388 38.3666C21.4979 37.4137 22.2188 35.9818 22.2188 34.4388V30.7357C22.2188 28.0127 20.0043 25.7982 17.2812 25.7982C14.5582 25.7982 12.3438 28.0127 12.3438 30.7357V34.4388C12.3438 35.9818 13.0646 37.4137 14.3237 38.3666C14.6323 38.5987 14.8125 38.9641 14.8125 39.3517V43.8226C14.8125 44.5039 14.2595 45.0569 13.5781 45.0569C12.8968 45.0569 12.3438 44.5015 12.3438 43.8201V39.9318C10.7662 38.5222 9.875 36.5521 9.875 34.4388V30.7357C9.875 26.6524 13.1979 23.3295 17.2812 23.3295C21.3646 23.3295 24.6875 26.6524 24.6875 30.7357V34.4388C24.6875 36.5521 23.7963 38.5197 22.2188 39.9318V43.8201C22.2188 44.5015 21.6658 45.0545 20.9844 45.0545Z" fill="white"/>
<path d="M18.523 41.7217C17.9503 41.7217 17.4368 41.3192 17.3158 40.7366C17.18 40.0676 17.6096 39.4158 18.2786 39.2801C20.5597 38.8085 22.2188 36.7743 22.2188 34.4388C22.2188 33.7575 22.7717 33.2045 23.4531 33.2045C24.1345 33.2045 24.6875 33.7575 24.6875 34.4388C24.6875 37.9395 22.199 40.9909 18.7724 41.6945C18.6884 41.7118 18.607 41.7217 18.523 41.7217Z" fill="white"/>
<path d="M25.6108 46.99C25.4479 46.99 25.2825 46.9579 25.1245 46.8887L20.498 44.9014C19.871 44.6323 19.5821 43.9065 19.8512 43.2794C20.1178 42.6499 20.8437 42.366 21.4707 42.6326L26.0972 44.62C26.7242 44.8891 27.0131 45.6149 26.744 46.2419C26.544 46.711 26.0873 46.99 25.6108 46.99Z" fill="white"/>
<path d="M9.875 61.9333C9.70466 61.9333 9.52938 61.8987 9.36397 61.8222L4.63878 59.6744C3.32047 59.072 2.46875 57.7488 2.46875 56.3021V52.8804C2.46875 49.4192 4.51781 46.3086 7.68769 44.9557L13.0868 42.6129C13.7188 42.3413 14.4397 42.6277 14.7113 43.2523C14.9804 43.8769 14.694 44.6052 14.0694 44.8767L8.66531 47.222C6.399 48.1922 4.9375 50.4117 4.9375 52.8804V56.3021C4.9375 56.7835 5.22141 57.2279 5.66084 57.4278L10.386 59.5756C11.0057 59.8571 11.2797 60.5903 10.9983 61.21C10.7909 61.6642 10.3416 61.9333 9.875 61.9333Z" fill="white"/>
<path d="M22.0682 32.9823C19.6093 32.9823 17.259 32.1355 15.2717 30.5333C14.7434 30.1062 14.6594 29.331 15.0841 28.8002C15.5161 28.2694 16.2938 28.188 16.8196 28.6151C18.4045 29.8914 20.2857 30.5802 22.2138 30.5135C22.0953 27.8917 19.9277 25.7982 17.2812 25.7982C14.5582 25.7982 12.3438 28.0127 12.3438 30.7357V31.6492C12.3438 32.3305 11.7907 32.8835 11.1094 32.8835C10.428 32.8835 9.875 32.333 9.875 31.6492V30.7357C9.875 26.6524 13.1979 23.3295 17.2812 23.3295C21.3646 23.3295 24.6875 26.6524 24.6875 30.7357V31.5998C24.6875 32.2071 24.2456 32.7231 23.6482 32.8193C23.0779 32.9107 22.5841 32.9823 22.0682 32.9823Z" fill="white"/>
<path d="M65.4219 45.0545C64.7405 45.0545 64.1875 44.5015 64.1875 43.8201V39.3492C64.1875 38.9616 64.3677 38.5987 64.6763 38.3666C65.9354 37.4137 66.6562 35.9818 66.6562 34.4388V30.7357C66.6562 28.0127 64.4418 25.7982 61.7188 25.7982C58.9957 25.7982 56.7812 28.0127 56.7812 30.7357V34.4388C56.7812 35.9818 57.5021 37.4137 58.7612 38.3666C59.0698 38.5987 59.25 38.9641 59.25 39.3517V43.8226C59.25 44.5039 58.697 45.0569 58.0156 45.0569C57.3343 45.0569 56.7812 44.5039 56.7812 43.8226V39.9343C55.2037 38.5246 54.3125 36.5546 54.3125 34.4413V30.7382C54.3125 26.6549 57.6354 23.3319 61.7188 23.3319C65.8021 23.3319 69.125 26.6549 69.125 30.7382V34.4413C69.125 36.5546 68.2338 38.5222 66.6562 39.9343V43.8226C66.6562 44.5015 66.1032 45.0545 65.4219 45.0545Z" fill="white"/>
<path d="M62.9605 41.7217C62.3878 41.7217 61.8743 41.3192 61.7533 40.7366C61.6175 40.0676 62.0471 39.4158 62.7161 39.2801C64.9972 38.8085 66.6562 36.7743 66.6562 34.4388C66.6562 33.7575 67.2093 33.2045 67.8906 33.2045C68.572 33.2045 69.125 33.7575 69.125 34.4388C69.125 37.9395 66.6365 40.9909 63.2099 41.6945C63.1259 41.7118 63.0445 41.7217 62.9605 41.7217Z" fill="white"/>
<path d="M53.7521 46.8344C53.2756 46.8344 52.8189 46.5555 52.6189 46.0864C52.3498 45.4618 52.6387 44.7335 53.2658 44.4644L57.5293 42.6326C58.1514 42.3685 58.8797 42.6499 59.1488 43.2794C59.4179 43.904 59.129 44.6323 58.502 44.9014L54.2384 46.7332C54.0804 46.8023 53.9175 46.8344 53.7521 46.8344Z" fill="white"/>
<path d="M69.125 61.9333C68.6584 61.9333 68.2091 61.6642 68.0017 61.21C67.7203 60.5903 67.9943 59.8571 68.614 59.5756L73.3392 57.4278C73.7786 57.2279 74.0625 56.786 74.0625 56.3021V52.8804C74.0625 50.4117 72.601 48.1922 70.3421 47.227L64.9306 44.8767C64.306 44.6052 64.0196 43.8793 64.2887 43.2523C64.5603 42.6252 65.2762 42.3388 65.9132 42.6129L71.3173 44.9582C74.4822 46.3086 76.5312 49.4192 76.5312 52.8804V56.3021C76.5312 57.7488 75.6795 59.072 74.3612 59.6744L69.636 61.8222C69.4706 61.8963 69.2953 61.9333 69.125 61.9333Z" fill="white"/>
<path d="M42.7341 29.294C39.2235 29.294 35.5698 28.0571 33.5553 26.2451C33.0467 25.7883 33.0047 25.0082 33.4614 24.5021C33.9182 23.996 34.7057 23.9541 35.2044 24.4108C37.6386 26.5981 43.4697 27.7411 46.81 25.9488C47.4099 25.6254 48.1604 25.8501 48.4813 26.4524C48.8047 27.0548 48.5776 27.8004 47.9777 28.1238C46.4545 28.936 44.6152 29.294 42.7341 29.294Z" fill="white"/>
<path d="M39.4827 51.7201C35.3871 51.7201 33.2516 48.5255 32.6937 46.8344C32.4789 46.1852 32.8319 45.489 33.4787 45.2742C34.1255 45.0619 34.8192 45.4124 35.034 46.0543C35.0859 46.2024 36.1795 49.2489 39.4827 49.2489C42.8131 49.2489 43.9857 46.1086 44.0376 45.9753C44.2672 45.3359 44.9831 45.0026 45.6126 45.2297C46.252 45.4569 46.5903 46.1555 46.3656 46.7974C46.294 46.9998 44.5881 51.7201 39.4827 51.7201Z" fill="white"/>
<path d="M62.9531 61.5951C62.2718 61.5951 61.7188 61.0421 61.7188 60.3607V59.6719C61.7188 56.0108 59.4105 52.7372 55.9764 51.53L45.6793 47.8762C44.198 47.3603 43.2031 45.958 43.2031 44.3904V41.3538C43.2031 40.6724 43.7561 40.1194 44.4375 40.1194C45.1189 40.1194 45.6719 40.6724 45.6719 41.3538V44.3904C45.6719 44.9088 46.0052 45.3729 46.4989 45.5457L56.7985 49.202C61.2176 50.7548 64.1875 54.964 64.1875 59.6719V60.3632C64.1875 61.0446 63.6345 61.5951 62.9531 61.5951Z" fill="white"/>
<path d="M16.0469 61.5951C15.3655 61.5951 14.8125 61.0421 14.8125 60.3607V59.6941C14.8125 58.9239 14.894 58.1512 15.0544 57.3883C15.8494 53.6284 18.5996 50.4931 22.2237 49.1995L32.4986 45.5951C32.9948 45.4223 33.3281 44.9557 33.3281 44.4373V41.3513C33.3281 40.67 33.8811 40.117 34.5625 40.117C35.2439 40.117 35.7969 40.67 35.7969 41.3513V44.4373C35.7969 46.0025 34.802 47.4047 33.3158 47.9256L23.0483 51.5275C20.2265 52.5323 18.0885 54.9739 17.4689 57.8994C17.343 58.4919 17.2812 59.0967 17.2812 59.6941V60.3607C17.2812 61.0446 16.7282 61.5951 16.0469 61.5951Z" fill="white"/>
<path d="M39.5 44.3138C38.8186 44.3138 38.2656 43.7608 38.2656 43.0795C38.2656 42.3981 38.8186 41.8451 39.5 41.8451C42.0626 41.8451 46.9062 39.5245 46.9062 30.7357V27.0326C46.9062 22.9493 43.5833 19.6263 39.5 19.6263C35.4167 19.6263 32.0938 22.9493 32.0938 27.0326V30.7357C32.0938 34.9918 33.2318 38.2481 35.3821 40.1515C35.8932 40.6033 35.9425 41.3834 35.4883 41.8945C35.0316 42.408 34.2539 42.4499 33.7478 42.0006C31.8666 40.3367 29.625 37.0335 29.625 30.7357V27.0326C29.625 21.5865 34.0539 17.1576 39.5 17.1576C44.9461 17.1576 49.375 21.5865 49.375 27.0326V30.7357C49.375 41.4772 42.9167 44.3138 39.5 44.3138Z" fill="white"/>
<path d="M58.307 83.8139C57.8528 83.8139 57.4183 83.5621 57.201 83.1276C56.8998 82.5153 57.1492 81.7771 57.7614 81.4735L63.8666 78.4493C64.2098 78.2789 64.6196 78.2789 64.9603 78.4493L68.9498 80.4267L68.3005 76.0225C68.2462 75.6423 68.3696 75.2547 68.6412 74.9807L71.7592 71.7935L67.3649 71.0455C66.9871 70.9813 66.6588 70.7418 66.4786 70.4012L64.4147 66.4561L62.3484 70.4012C62.1681 70.7418 61.8398 70.9813 61.4621 71.0455L57.0702 71.7935L60.1857 74.9807C60.6622 75.4695 60.6523 76.2496 60.166 76.7261C59.6772 77.205 58.8946 77.1951 58.4206 76.7063L53.6584 71.8355C53.3374 71.5071 53.2239 71.0282 53.367 70.5912C53.5102 70.1543 53.8805 69.8333 54.3348 69.7568L60.4474 68.715L63.3235 63.2245C63.5383 62.8171 63.9604 62.5629 64.4172 62.5629C64.8788 62.5629 65.296 62.8196 65.5108 63.2245L68.3844 68.715L74.4995 69.7568C74.9538 69.8333 75.3241 70.1567 75.4673 70.5912C75.6105 71.0257 75.4969 71.5071 75.176 71.8355L70.8384 76.2669L71.7419 82.3993C71.8061 82.8535 71.616 83.3078 71.2457 83.5769C70.8754 83.8484 70.3817 83.8904 69.9719 83.683L64.4172 80.9304L58.86 83.683C58.6798 83.7744 58.4922 83.8139 58.307 83.8139Z" fill="#807AF9"/>
<path d="M32.2815 90.5313C32.0247 90.5313 31.7704 90.4523 31.5556 90.2968C31.1853 90.0277 30.9928 89.5735 31.0594 89.1167L32.1407 81.7524L26.9366 76.4298C26.6157 76.1015 26.5021 75.6225 26.6453 75.1856C26.7885 74.7486 27.1588 74.4252 27.613 74.3511L34.9551 73.1019L38.4064 66.5079C38.836 65.6932 40.1666 65.6932 40.5962 66.5079L44.0475 73.1019L51.3896 74.3511C51.8438 74.4277 52.2141 74.7511 52.3573 75.1856C52.5005 75.6201 52.3869 76.1015 52.066 76.4298L46.8594 81.7524L47.9432 89.1167C48.0074 89.571 47.8173 90.0252 47.447 90.2943C47.0767 90.5684 46.5829 90.6054 46.1731 90.4005L39.5001 87.0948L32.8295 90.4005C32.6567 90.4869 32.4691 90.5313 32.2815 90.5313ZM30.3484 76.3879L34.333 80.4638C34.6021 80.7403 34.728 81.1254 34.6737 81.5056L33.8442 87.1417L38.952 84.6113C39.2952 84.4384 39.705 84.4384 40.0457 84.6113L45.151 87.1417L44.3215 81.5056C44.2672 81.1254 44.3907 80.7378 44.6622 80.4638L48.6493 76.3879L43.0279 75.43C42.6502 75.3658 42.3219 75.1263 42.1416 74.7856L39.5001 69.737L36.8585 74.7856C36.6783 75.1263 36.3499 75.3658 35.9722 75.43L30.3484 76.3879Z" fill="#5751E1"/>
<path d="M20.8931 83.8139C20.708 83.8139 20.5228 83.7719 20.345 83.6855L14.7904 80.9328L9.2332 83.688C8.82586 83.8904 8.33458 83.8509 7.95933 83.5793C7.58901 83.3103 7.39645 82.856 7.46311 82.4018L8.36667 76.2694L4.02908 71.838C3.70814 71.5096 3.59458 71.0307 3.73776 70.5937C3.88095 70.1568 4.25126 69.8334 4.70551 69.7593L10.8206 68.7175L13.6967 63.227C13.9115 62.8196 14.3336 62.5654 14.7904 62.5654C15.252 62.5654 15.6692 62.8221 15.884 63.227L18.7576 68.7175L24.8703 69.7593C25.3245 69.8358 25.6948 70.1592 25.838 70.5937C25.9812 71.0282 25.8676 71.5096 25.5467 71.838L20.7845 76.7063C20.313 77.1952 19.5304 77.205 19.0391 76.7261C18.5527 76.2496 18.5429 75.4695 19.0193 74.9807L22.1349 71.7935L17.743 71.0455C17.3628 70.9813 17.0369 70.7419 16.8567 70.4012L14.7928 66.4561L12.7265 70.4012C12.5463 70.7419 12.2179 70.9813 11.8402 71.0455L7.44583 71.7935L10.5639 74.9807C10.833 75.2572 10.9589 75.6423 10.9045 76.0225L10.2553 80.4268L14.2472 78.4493C14.5904 78.2789 15.0002 78.2789 15.3409 78.4493L21.4436 81.4735C22.0559 81.7772 22.3052 82.5153 22.004 83.1276C21.7819 83.5621 21.3449 83.8139 20.8931 83.8139Z" fill="#807AF9"/>
<path d="M94 13.4234C93.4937 13.8003 93.2405 14.1772 92.9873 14.3029C91.7215 14.8055 90.4557 15.308 89.1899 15.8106C87.2911 16.4388 86.1519 17.6953 85.8987 19.7056C85.6456 21.339 85.3924 22.9724 85.0127 24.6058C84.8861 25.1083 84.5063 25.8622 84.1266 25.9879C83.3671 26.1135 83.3671 25.234 83.2405 24.7314C82.7342 23.2237 82.2278 21.5903 81.8481 20.0825C81.2152 17.9466 79.8228 16.8158 77.5443 16.8158C76.6582 16.8158 75.8987 16.6901 75.0127 16.5645C74.5063 16.5645 74.2532 16.3132 74 16.0619C74.2532 15.8106 74.3797 15.4337 74.6329 15.308C75.8987 14.8055 77.2911 14.3029 78.557 13.9259C79.8228 13.549 80.7089 12.6695 80.962 11.413C81.4684 9.40273 81.8481 7.39241 82.3544 5.50774C82.6076 4.87951 82.3544 4 83.2405 4C84.1266 4 84 4.75387 84.1266 5.25645C84.5063 7.01548 84.8861 8.64886 85.3924 10.4079C86.0253 12.6695 86.5316 13.0464 88.9367 13.0464C90.2025 13.0464 91.5949 12.9208 92.8608 12.9208C92.9873 12.9208 93.3671 13.1721 94 13.4234Z" fill="#434087"/>
<path d="M77 4.71168C76.7468 4.90015 76.6203 5.08862 76.4937 5.15144C75.8608 5.40273 75.2278 5.65402 74.5949 5.90531C73.6456 6.21942 73.0759 6.84765 72.9494 7.85281C72.8228 8.6695 72.6962 9.48619 72.5063 10.3029C72.443 10.5542 72.2532 10.9311 72.0633 10.9939C71.6835 11.0568 71.6835 10.617 71.6203 10.3657C71.3671 9.61184 71.1139 8.79514 70.9241 8.04127C70.6076 6.97329 69.9114 6.40789 68.7722 6.40789C68.3291 6.40789 67.9494 6.34507 67.5063 6.28225C67.2532 6.28225 67.1266 6.1566 67 6.03096C67.1266 5.90531 67.1899 5.71684 67.3165 5.65402C67.9494 5.40273 68.6456 5.15144 69.2785 4.96297C69.9114 4.77451 70.3544 4.33475 70.481 3.70652C70.7342 2.70137 70.9241 1.69621 71.1772 0.753869C71.3038 0.439757 71.1772 0 71.6203 0C72.0633 0 72 0.376935 72.0633 0.628225C72.2532 1.50774 72.443 2.32443 72.6962 3.20395C73.0127 4.33475 73.2658 4.52322 74.4684 4.52322C75.1013 4.52322 75.7975 4.46039 76.4304 4.46039C76.4937 4.46039 76.6835 4.58604 77 4.71168Z" fill="#6663A9"/>
</svg>
