<svg width="27" height="32" viewBox="0 0 27 32" fill="none" xmlns="http://www.w3.org/2000/svg">
<path d="M5.0116 24.5H21.9884C24.7519 24.5 27 22.2571 27 19.5V5C27 2.24292 24.7519 0 21.9884 0H5.0116C2.24812 0 0 2.24292 0 5V27C0 29.7571 2.24812 32 5.0116 32H21.9884C24.7519 32 27 29.7571 27 27C27 26.3096 26.4391 25.75 25.7471 25.75C25.0551 25.75 24.4942 26.3096 24.4942 27C24.4942 28.3784 23.37 29.5 21.9884 29.5H5.0116C3.62998 29.5 2.5058 28.3784 2.5058 27C2.5058 25.6216 3.62998 24.5 5.0116 24.5ZM2.5058 5C2.5058 3.62158 3.62998 2.5 5.0116 2.5H21.9884C23.37 2.5 24.4942 3.62158 24.4942 5V19.5C24.4942 20.8784 23.37 22 21.9884 22H5.0116C4.09933 22 3.24335 22.2444 2.5058 22.6709V5ZM7.58005 8.4375C7.58005 7.74707 8.14091 7.1875 8.83295 7.1875H18.2297C18.9217 7.1875 19.4826 7.74707 19.4826 8.4375C19.4826 9.12793 18.9217 9.6875 18.2297 9.6875H8.83295C8.14091 9.6875 7.58005 9.12793 7.58005 8.4375Z" fill="currentcolor"/>
</svg>
