<svg width="32" height="26" viewBox="0 0 32 26" fill="none" xmlns="http://www.w3.org/2000/svg">
<path d="M29.6966 5.50114C29.6966 5.50114 18.4058 0.499395 18.4028 0.498095C17.6403 0.16757 16.8319 0 16 0C15.1681 0 14.3597 0.16757 13.5972 0.498095C13.5942 0.499395 2.30338 5.50114 2.30338 5.50114C0.904 6.11 0 7.52206 0 9.1C0 10.6779 0.904 12.09 2.30338 12.6989L5 13.8934V22.1C5 24.2505 6.68225 26 8.75 26H23.25C25.3177 26 27 24.2505 27 22.1V18.6335C27 17.9155 26.4404 17.3335 25.75 17.3335C25.0596 17.3335 24.5 17.9155 24.5 18.6335V22.1C24.5 22.8168 23.9393 23.4 23.25 23.4H8.75C8.06075 23.4 7.5 22.8168 7.5 22.1V15.001C7.5 15.001 13.5942 17.7007 13.5972 17.702C14.3597 18.0324 15.1681 18.2 16 18.2C16.8318 18.2 17.6402 18.0324 18.4028 17.702C18.4058 17.7007 29.6966 12.6989 29.6966 12.6989C31.096 12.09 32 10.6779 32 9.1C32 7.52206 31.096 6.11 29.6966 5.50114ZM28.7301 10.301C28.7271 10.3023 17.4373 15.3036 17.4373 15.3036C16.9821 15.5003 16.4986 15.6 15.9999 15.6C15.5013 15.6 15.0178 15.5003 14.5627 15.3037C13.4414 14.8069 3.27281 10.3023 3.26981 10.301C2.80219 10.0983 2.5 9.62689 2.5 9.1C2.5 8.57311 2.80219 8.10173 3.26988 7.89899C3.27288 7.89769 14.5627 2.89633 14.5627 2.89633C15.0178 2.69971 15.5014 2.6 16 2.6C16.4986 2.6 16.9822 2.69971 17.4373 2.89633C17.4373 2.89633 28.7271 7.89769 28.7301 7.89899C29.1978 8.10173 29.5 8.57311 29.5 9.1C29.5 9.62689 29.1978 10.0983 28.7301 10.301Z" fill="white"/>
<path d="M30.75 15.161C30.0596 15.161 29.5 15.743 29.5 16.461V22.1C29.5 22.818 30.0596 23.4 30.75 23.4C31.4404 23.4 32 22.818 32 22.1V16.461C32 15.743 31.4404 15.161 30.75 15.161Z" fill="currentcolor"/>
</svg>
