<svg width="22" height="22" viewBox="0 0 22 22" fill="none" xmlns="http://www.w3.org/2000/svg">
<path d="M10.7554 4.61133L9.79142 3.62048C7.52872 1.2946 3.37978 2.09723 1.88208 5.02139C1.17893 6.39675 1.02029 8.38249 2.30423 10.9168C3.54111 13.3569 6.11437 16.2797 10.7554 19.4634C15.3964 16.2797 17.9683 13.3569 19.2065 10.9168C20.4905 8.38115 20.3332 6.39675 19.6287 5.02139C18.131 2.09723 13.982 1.29326 11.7193 3.61914L10.7554 4.61133ZM10.7554 21.0834C-9.85892 7.46155 4.40828 -3.17028 10.5188 2.45351C10.5994 2.52745 10.6787 2.60409 10.7554 2.68341C10.8312 2.60416 10.9102 2.52791 10.992 2.45485C17.1011 -3.17297 31.3697 7.4602 10.7554 21.0834Z" fill="currentcolor" />
</svg>