<svg width="30" height="30" viewBox="0 0 30 30" fill="none" xmlns="http://www.w3.org/2000/svg">
<path d="M14.7494 0C11.8308 0.00330112 9.03278 1.16414 6.96907 3.22786C4.90536 5.29157 3.74451 8.08962 3.74121 11.0081C3.74121 16.896 13.8268 29.244 14.2561 29.7669C14.316 29.8398 14.3913 29.8985 14.4766 29.9388C14.5619 29.9791 14.655 30 14.7494 30C14.8437 30 14.9368 29.9791 15.0221 29.9388C15.1074 29.8985 15.1827 29.8398 15.2426 29.7669C15.6719 29.244 25.7575 16.896 25.7575 11.0081C25.7542 8.08962 24.5934 5.29157 22.5296 3.22786C20.4659 1.16414 17.6679 0.00330112 14.7494 0ZM14.7494 28.3415C12.7054 25.7618 5.01781 15.7433 5.01781 11.0082C5.01781 9.73019 5.26952 8.46474 5.75858 7.28405C6.24763 6.10337 6.96445 5.03057 7.86811 4.12691C8.77177 3.22325 9.84457 2.50643 11.0253 2.01738C12.2059 1.52832 13.4714 1.27661 14.7494 1.27661C16.0273 1.27661 17.2928 1.52832 18.4735 2.01738C19.6541 2.50643 20.7269 3.22325 21.6306 4.12691C22.5343 5.03057 23.2511 6.10337 23.7401 7.28405C24.2292 8.46474 24.4809 9.73019 24.4809 11.0082C24.4809 15.7433 16.7933 25.7618 14.7494 28.3415Z" fill="white"/>
<path d="M14.7494 6.14845C13.8608 6.14845 12.9922 6.41193 12.2534 6.90558C11.5146 7.39923 10.9388 8.10087 10.5988 8.92178C10.2588 9.74268 10.1698 10.646 10.3431 11.5175C10.5165 12.3889 10.9443 13.1894 11.5726 13.8177C12.2009 14.446 13.0014 14.8739 13.8729 15.0472C14.7444 15.2206 15.6477 15.1316 16.4686 14.7916C17.2895 14.4515 17.9911 13.8757 18.4848 13.1369C18.9784 12.3981 19.2419 11.5295 19.2419 10.641C19.2405 9.44992 18.7668 8.30802 17.9246 7.46579C17.0823 6.62357 15.9404 6.14981 14.7494 6.14845ZM14.7494 13.857C14.1133 13.857 13.4915 13.6683 12.9627 13.315C12.4338 12.9616 12.0216 12.4593 11.7782 11.8717C11.5348 11.2841 11.4711 10.6374 11.5952 10.0136C11.7193 9.38976 12.0256 8.81674 12.4753 8.36698C12.9251 7.91722 13.4981 7.61093 14.122 7.48684C14.7458 7.36275 15.3924 7.42644 15.98 7.66984C16.5677 7.91325 17.07 8.32545 17.4233 8.85431C17.7767 9.38317 17.9653 10.0049 17.9653 10.641C17.9643 11.4936 17.6252 12.311 17.0223 12.9139C16.4194 13.5168 15.602 13.856 14.7494 13.857Z" fill="white"/>
</svg>
