<svg width="16" height="20" viewBox="0 0 16 20" fill="none" xmlns="http://www.w3.org/2000/svg">
<path d="M7.83291 0C5.88722 0.00220074 4.02185 0.776096 2.64605 2.1519C1.27024 3.52771 0.496341 5.39308 0.494141 7.33876C0.494141 11.264 7.21788 19.496 7.50409 19.8446C7.54401 19.8932 7.5942 19.9323 7.65106 19.9592C7.70791 19.9861 7.77002 20 7.83291 20C7.89579 20 7.95789 19.9861 8.01475 19.9592C8.07161 19.9323 8.1218 19.8932 8.16172 19.8446C8.44793 19.496 15.1717 11.264 15.1717 7.33876C15.1695 5.39308 14.3956 3.52771 13.0198 2.1519C11.644 0.776096 9.77859 0.00220074 7.83291 0ZM7.83291 18.8943C6.47029 17.1745 1.3452 10.4956 1.3452 7.33877C1.3452 6.48679 1.51301 5.64316 1.83905 4.85603C2.16509 4.06891 2.64297 3.35371 3.24541 2.75127C3.84785 2.14883 4.56305 1.67095 5.35017 1.34492C6.13729 1.01888 6.98093 0.85107 7.83291 0.85107C8.68488 0.85107 9.52852 1.01888 10.3156 1.34492C11.1028 1.67095 11.818 2.14883 12.4204 2.75127C13.0228 3.35371 13.5007 4.06891 13.8268 4.85603C14.1528 5.64316 14.3206 6.48679 14.3206 7.33877C14.3206 10.4956 9.19552 17.1745 7.83291 18.8943Z" fill="white"/>
<path d="M7.8329 4.09897C7.24054 4.09897 6.66148 4.27462 6.16895 4.60372C5.67642 4.93282 5.29254 5.40058 5.06585 5.94785C4.83917 6.49512 4.77986 7.09732 4.89542 7.6783C5.01098 8.25928 5.29623 8.79295 5.7151 9.21181C6.13396 9.63067 6.66762 9.91592 7.2486 10.0315C7.82958 10.147 8.43178 10.0877 8.97905 9.86105C9.52633 9.63436 9.99409 9.25048 10.3232 8.75795C10.6523 8.26542 10.8279 7.68636 10.8279 7.094C10.827 6.29995 10.5112 5.53868 9.94971 4.9772C9.38823 4.41572 8.62696 4.09988 7.8329 4.09897ZM7.8329 9.23797C7.40887 9.23797 6.99435 9.11223 6.64178 8.87665C6.2892 8.64106 6.01441 8.30622 5.85213 7.91446C5.68986 7.5227 5.6474 7.09162 5.73013 6.67573C5.81286 6.25984 6.01705 5.87782 6.31689 5.57798C6.61673 5.27814 6.99875 5.07395 7.41464 4.99123C7.83053 4.9085 8.26161 4.95096 8.65337 5.11323C9.04513 5.2755 9.37997 5.5503 9.61555 5.90287C9.85113 6.25545 9.97687 6.66996 9.97687 7.094C9.97622 7.66242 9.75013 8.20736 9.3482 8.60929C8.94627 9.01123 8.40132 9.23732 7.8329 9.23797Z" fill="white"/>
</svg>
