<svg width="20" height="20" viewBox="0 0 20 20" fill="none" xmlns="http://www.w3.org/2000/svg">
<path d="M15.8148 12.3893C15.4047 11.963 14.9101 11.735 14.3859 11.735C13.866 11.735 13.3672 11.9587 12.9402 12.3851L11.6044 13.7147C11.4945 13.6556 11.3846 13.6008 11.2789 13.5459C11.1267 13.4699 10.983 13.3981 10.8604 13.3222C9.6091 12.5286 8.47196 11.4944 7.38132 10.1563C6.85291 9.48937 6.49782 8.92795 6.23996 8.3581C6.58659 8.04152 6.90787 7.71227 7.22069 7.39568C7.33905 7.27749 7.45741 7.15508 7.57578 7.03689C8.46351 6.15045 8.46351 5.0023 7.57578 4.11586L6.42173 2.96349C6.29068 2.83263 6.15541 2.69756 6.02859 2.56248C5.77496 2.30077 5.50864 2.03062 5.23386 1.77735C4.82382 1.37212 4.33345 1.15684 3.81772 1.15684C3.30199 1.15684 2.80317 1.37212 2.38045 1.77735C2.37622 1.78157 2.37622 1.78157 2.37199 1.78579L0.934715 3.23364C0.393623 3.77395 0.0850312 4.43244 0.0173946 5.19647C-0.0840602 6.42904 0.279486 7.57719 0.558487 8.32855C1.24331 10.1732 2.26631 11.8828 3.79236 13.7147C5.64391 15.9224 7.87169 17.6657 10.4165 18.8941C11.3888 19.3542 12.6866 19.8987 14.1365 19.9916C14.2253 19.9958 14.3183 20 14.4028 20C15.3793 20 16.1994 19.6496 16.842 18.9532C16.8462 18.9447 16.8547 18.9405 16.8589 18.9321C17.0787 18.6661 17.3323 18.4255 17.5987 18.168C17.7804 17.995 17.9664 17.8135 18.1482 17.6235C18.5667 17.1887 18.7865 16.6822 18.7865 16.163C18.7865 15.6396 18.5625 15.1372 18.1355 14.7151L15.8148 12.3893ZM17.3281 16.8341C17.3239 16.8384 17.3239 16.8341 17.3281 16.8341C17.1633 17.0114 16.9942 17.1718 16.8124 17.3491C16.5376 17.6108 16.2586 17.8852 15.9965 18.1934C15.5696 18.6492 15.0665 18.8645 14.4071 18.8645C14.3437 18.8645 14.276 18.8645 14.2126 18.8603C12.9571 18.7801 11.7904 18.2904 10.9153 17.8725C8.52269 16.716 6.42173 15.0739 4.67586 12.9929C3.23436 11.258 2.27054 9.65399 1.63222 7.93177C1.23908 6.8807 1.09535 6.0618 1.15876 5.28933C1.20103 4.79546 1.39126 4.38601 1.74213 4.03566L3.18363 2.59625C3.39077 2.40208 3.61059 2.29655 3.82618 2.29655C4.0925 2.29655 4.30809 2.45695 4.44336 2.59203C4.44759 2.59625 4.45182 2.60047 4.45604 2.60469C4.71391 2.8453 4.95909 3.09434 5.21695 3.36027C5.348 3.49535 5.48327 3.63043 5.61855 3.76972L6.77259 4.9221C7.22069 5.36954 7.22069 5.78321 6.77259 6.23065C6.65 6.35306 6.53164 6.47547 6.40905 6.59367C6.05396 6.95668 5.71577 7.29437 5.348 7.62362C5.33955 7.63207 5.33109 7.63629 5.32686 7.64473C4.96332 8.00775 5.03095 8.36232 5.10704 8.60293C5.11127 8.61559 5.1155 8.62825 5.11973 8.64092C5.41986 9.36695 5.84259 10.0508 6.48514 10.8655L6.48937 10.8697C7.6561 12.3049 8.88624 13.4235 10.2432 14.2804C10.4165 14.3901 10.5941 14.4788 10.7631 14.5632C10.9153 14.6392 11.0591 14.7109 11.1817 14.7869C11.1986 14.7953 11.2155 14.808 11.2324 14.8164C11.3761 14.8882 11.5114 14.922 11.6509 14.922C12.0017 14.922 12.2216 14.7025 12.2934 14.6307L13.7392 13.1871C13.8829 13.0436 14.1112 12.8705 14.3775 12.8705C14.6396 12.8705 14.8552 13.0351 14.9862 13.1786C14.9904 13.1829 14.9904 13.1829 14.9947 13.1871L17.3239 15.5129C17.7593 15.9435 17.7593 16.3867 17.3281 16.8341Z" fill="white" fill-opacity="0.6"/>
<path d="M10.8096 4.75746C11.9172 4.94319 12.9233 5.46661 13.7265 6.26863C14.5296 7.07065 15.0496 8.07528 15.2398 9.18121C15.2863 9.45981 15.5273 9.65398 15.8021 9.65398C15.8359 9.65398 15.8655 9.64976 15.8993 9.64554C16.2121 9.59489 16.4192 9.29941 16.3685 8.98704C16.1402 7.64894 15.5061 6.42903 14.5381 5.46239C13.57 4.49575 12.3484 3.86258 11.0083 3.63464C10.6955 3.58399 10.4038 3.79082 10.3489 4.09896C10.2939 4.40711 10.4968 4.70681 10.8096 4.75746Z" fill="white" fill-opacity="0.6"/>
<path d="M19.9913 8.82242C19.6151 6.61899 18.5752 4.61395 16.9772 3.01836C15.3793 1.42277 13.3714 0.384369 11.1647 0.00868773C10.8561 -0.0461871 10.5645 0.16487 10.5095 0.473013C10.4588 0.785377 10.6659 1.07664 10.9787 1.13151C12.9486 1.46498 14.7452 2.39785 16.1741 3.82037C17.6029 5.24712 18.5329 7.0411 18.8668 9.00815C18.9133 9.28675 19.1543 9.48092 19.4291 9.48092C19.4629 9.48092 19.4925 9.4767 19.5263 9.47248C19.8349 9.42605 20.0463 9.13057 19.9913 8.82242Z" fill="white" fill-opacity="0.6"/>
</svg>
