<svg width="92" height="65" viewBox="0 0 92 65" fill="none" xmlns="http://www.w3.org/2000/svg">
<path d="M77.5086 12.7343C76.661 8.42367 71.6869 6.263 73.3524 0.882867C74.3439 1.59498 75.0389 2.00347 75.4328 2.5083C80.3595 8.56868 85.3849 14.7303 90.2103 20.8894C90.9981 21.8991 91.8773 23.6099 91.5652 24.6062C90.9421 26.4987 89.0471 26.0757 87.4521 25.6562C82.3671 24.3943 77.1809 23.2311 71.9958 21.9679C73.431 19.0852 73.431 19.0852 82.2218 19.8922C70.559 8.54945 52.6384 10.1316 43.9748 23.5272C45.365 24.3441 46.7563 25.0611 48.1465 25.8781C52.117 28.3266 54.9779 31.5616 56.3218 36.1783C57.2816 39.4902 56.9439 42.5863 54.3137 45.0545C51.5835 47.5215 48.4861 47.2838 45.3022 45.945C38.4355 43.1612 35.11 37.0203 36.5987 29.7379C36.8096 28.8404 36.8206 27.9405 36.9364 26.6418C27.6456 25.8287 19.0243 27.5239 11.7567 33.0359C0.452943 41.499 2.90676 53.5298 8.81021 61.5022C9.49799 62.5106 10.4882 63.3227 11.7698 64.8384C8.67372 64.5007 7.09331 62.8814 5.61288 61.2633C-0.211259 54.992 -1.48464 44.5757 2.60752 37.0249C5.26572 32.2569 9.01046 28.6022 13.9393 26.262C21.1813 22.8498 28.8015 21.2424 36.7899 22.2397C37.5886 22.3494 38.3886 22.3591 39.3873 22.4713C43.76 16.524 48.8241 11.2852 56.4491 9.27785C63.8716 7.46802 70.5359 10.4493 77.5086 12.7343ZM41.6251 27.5989C38.3414 34.4594 40.5646 40.7869 46.741 42.7622C48.2348 43.2804 50.3371 43.106 51.6467 42.3219C53.46 41.2439 53.2867 39.0416 52.5099 37.132C50.6709 32.1093 46.9052 29.2632 41.6251 27.5989Z" fill="#FFD53F"/>
</svg>
