<svg width="242" height="360" viewBox="0 0 242 360" fill="none" xmlns="http://www.w3.org/2000/svg">
<path d="M174.115 130.65L184.05 146.105L184.294 146.074L185.532 145.914L177.202 132.957L176.371 131.664L177.804 132.221L206.206 143.25L209.006 142.89L174.926 129.656C174.926 129.656 174.926 129.656 174.926 129.656C174.793 129.605 174.648 129.597 174.511 129.633C174.373 129.67 174.251 129.749 174.161 129.859C174.071 129.969 174.018 130.105 174.01 130.247C174.001 130.389 174.038 130.53 174.115 130.649C174.115 130.649 174.115 130.65 174.115 130.65ZM206.081 144.275L187.192 146.709C187.25 146.858 187.287 147.015 187.3 147.176C187.323 147.448 187.279 147.72 187.173 147.971L187.173 147.971L187.128 148.078L206.619 145.566L207.69 144.9L206.081 144.275ZM209.329 143.856L208.155 144.007L208.984 144.329L209.411 144.495L209.329 143.856ZM209.502 145.195L209.472 144.968L209.067 145.22L209.005 145.259L209.502 145.195ZM210.125 146.123L206.963 146.53L180.762 162.844L179.419 163.679L180.037 162.224L185.526 149.292L184.722 149.396L184.226 149.46L184.171 149.033L177.343 165.117C177.343 165.117 177.343 165.117 177.343 165.117C177.287 165.249 177.275 165.396 177.308 165.535C177.34 165.675 177.417 165.8 177.526 165.893C177.635 165.987 177.77 166.043 177.913 166.053C178.056 166.064 178.199 166.029 178.321 165.954C178.321 165.954 178.321 165.954 178.321 165.954L210.182 146.115L210.125 146.123ZM185.09 148.34L185.979 148.226L186.253 147.581C186.253 147.581 186.253 147.581 186.253 147.58C186.295 147.48 186.313 147.37 186.304 147.26C186.295 147.151 186.259 147.046 186.2 146.954C186.2 146.954 186.2 146.953 186.2 146.953L186.13 146.845L184.917 147.002L185.09 148.34ZM210.557 145.563L210.595 145.858L211.775 145.123C211.882 145.057 211.968 144.963 212.023 144.85C212.079 144.738 212.102 144.612 212.091 144.488C212.079 144.363 212.033 144.244 211.957 144.144C211.882 144.044 211.78 143.967 211.663 143.921C211.663 143.921 211.663 143.921 211.663 143.921L210.276 143.383L210.557 145.563Z" fill="#D4D4D4" stroke="#C1C1C1"/>
<path d="M-146.93 281.256C-94.1835 313.951 30.32 356.528 106.364 265.281C201.42 151.222 126.869 424.769 107.263 320.843C87.6563 216.918 151.901 147.487 177.831 148.292" stroke="#D4D4D4" stroke-width="2" stroke-dasharray="8 8"/>
</svg>
