<svg width="33" height="21" viewBox="0 0 33 21" fill="none" xmlns="http://www.w3.org/2000/svg">
<path d="M28.5404 9.24051C29.5067 8.55992 30.1466 7.42779 30.1466 6.15169C30.1466 4.06413 28.462 2.37575 26.3791 2.37575C24.2962 2.37575 22.6116 4.06413 22.6116 6.15169C22.6116 7.42779 23.245 8.55992 24.2178 9.24051C23.3886 9.52845 22.6312 9.97344 21.9913 10.5493C21.1098 9.79675 20.0716 9.22087 18.9355 8.88058C20.3132 8.04294 21.2404 6.51816 21.2404 4.78398C21.2404 2.14016 19.1053 0.000244141 16.4674 0.000244141C13.8294 0.000244141 11.6943 2.14671 11.6943 4.78398C11.6943 6.51816 12.615 8.04294 13.9992 8.88058C12.8761 9.22087 11.851 9.79021 10.9761 10.5297C10.3362 9.9669 9.59181 9.52845 8.77562 9.24705C9.74199 8.56646 10.3819 7.43434 10.3819 6.15824C10.3819 4.07067 8.69727 2.38229 6.61437 2.38229C4.53146 2.38229 2.84685 4.07067 2.84685 6.15824C2.84685 7.43434 3.48021 8.56646 4.45311 9.24705C1.8609 10.1436 0 12.6107 0 15.5097V15.9417C0 15.9547 0.013059 15.9678 0.0261179 15.9678H8.01167C7.96597 16.3278 7.93985 16.7008 7.93985 17.0738V17.5188C7.93985 19.4427 9.49387 21.0002 11.4135 21.0002H21.5342C23.4539 21.0002 25.0079 19.4427 25.0079 17.5188V17.0738C25.0079 16.7008 24.9818 16.3278 24.9361 15.9678H32.9739C32.9869 15.9678 33 15.9547 33 15.9417V15.5097C32.9869 12.6042 31.1326 10.137 28.5404 9.24051ZM23.6563 6.14515C23.6563 4.64001 24.8773 3.41626 26.3791 3.41626C27.8809 3.41626 29.1019 4.64001 29.1019 6.14515C29.1019 7.63066 27.907 8.84132 26.4313 8.87404C26.4118 8.87404 26.3987 8.87404 26.3791 8.87404C26.3595 8.87404 26.3465 8.87404 26.3269 8.87404C24.8447 8.84786 23.6563 7.6372 23.6563 6.14515ZM12.726 4.78398C12.726 2.72259 14.3975 1.0473 16.4543 1.0473C18.5111 1.0473 20.1826 2.72259 20.1826 4.78398C20.1826 6.77338 18.6221 8.40286 16.6698 8.51411C16.5979 8.51411 16.5261 8.51411 16.4543 8.51411C16.3825 8.51411 16.3106 8.51411 16.2388 8.51411C14.2865 8.40286 12.726 6.77338 12.726 4.78398ZM3.87198 6.14515C3.87198 4.64001 5.093 3.41626 6.59478 3.41626C8.09656 3.41626 9.31757 4.64001 9.31757 6.14515C9.31757 7.63066 8.12268 8.84132 6.64701 8.87404C6.62742 8.87404 6.61437 8.87404 6.59478 8.87404C6.57519 8.87404 6.56213 8.87404 6.54254 8.87404C5.06688 8.84786 3.87198 7.6372 3.87198 6.14515ZM8.1945 14.9142H1.05778C1.3516 12.1265 3.70222 9.94072 6.5556 9.92109C6.56866 9.92109 6.58172 9.92109 6.59478 9.92109C6.60784 9.92109 6.62089 9.92109 6.63395 9.92109C7.99209 9.92764 9.23269 10.4315 10.1925 11.2495C9.25228 12.2704 8.55362 13.5269 8.1945 14.9142ZM23.9501 17.5188C23.9501 18.8603 22.8597 19.9532 21.5212 19.9532H11.4005C10.0619 19.9532 8.97151 18.8603 8.97151 17.5188V17.0738C8.97151 13.0099 12.2101 9.6855 16.2388 9.56771C16.3106 9.57425 16.389 9.57425 16.4608 9.57425C16.5326 9.57425 16.611 9.57425 16.6828 9.56771C20.7115 9.6855 23.9501 13.0099 23.9501 17.0738V17.5188ZM24.7271 14.9142C24.368 13.5334 23.6824 12.2966 22.7487 11.2757C23.7151 10.4381 24.9687 9.93418 26.3399 9.92109C26.353 9.92109 26.366 9.92109 26.3791 9.92109C26.3922 9.92109 26.4052 9.92109 26.4183 9.92109C29.2717 9.94072 31.6223 12.1265 31.9161 14.9142H24.7271Z" fill="currentcolor"/>
</svg>
