<svg width="505" height="502" viewBox="0 0 505 502" fill="none" xmlns="http://www.w3.org/2000/svg">
<path d="M156.364 29.8282C181.157 -2.66169 227.594 -8.90135 260.084 15.8916L475.522 180.292C508.012 205.084 514.252 251.521 489.459 284.011C464.666 316.501 418.229 322.741 385.739 297.948L170.301 133.548C137.811 108.755 131.572 62.3181 156.364 29.8282Z" fill="currentcolor"/>
<path d="M104.383 147.399C128.841 115.349 174.651 109.193 206.701 133.651L375.236 262.259C407.287 286.717 413.442 332.526 388.985 364.577C364.527 396.628 318.717 402.783 286.666 378.326L118.132 249.717C86.0809 225.26 79.9256 179.45 104.383 147.399Z" fill="currentcolor"/>
<path d="M15.4985 229.262C40.6264 196.333 87.6908 190.009 120.62 215.137L319.364 366.797C352.293 391.925 358.616 438.99 333.489 471.919C308.361 504.848 261.296 511.172 228.367 486.044L29.6235 334.383C-3.30548 309.255 -9.62945 262.191 15.4985 229.262Z" fill="currentcolor"/>
</svg>
