<svg width="103" height="78" viewBox="0 0 103 78" fill="none" xmlns="http://www.w3.org/2000/svg">
<path d="M3.42078 13.8366C2.50285 15.2111 2.59464 16.769 2.50285 18.2352C1.67671 25.8412 1.03416 33.5389 0.208018 41.2365C0.116224 42.5195 0.391601 43.7108 0.850568 44.9021C1.40133 46.3683 2.13568 47.7429 2.68644 49.2091C3.05361 50.0339 3.42078 50.5837 4.33872 50.9502C7.00073 52.0499 9.57094 53.3328 12.1412 54.5242C12.5083 54.7074 12.8755 54.7991 13.2427 54.9823C14.0688 57.8231 14.9867 60.6639 15.6293 63.5964C16.639 67.8118 18.1995 71.7522 19.6682 75.876C19.8518 76.3342 19.9436 76.7924 20.0354 77.2506C20.3108 77.9837 20.9533 78.2586 21.5959 77.7087C22.0548 77.2506 22.422 76.7007 22.881 76.1509C25.9102 72.1188 28.9393 67.995 31.9685 63.7797C33.6208 64.0546 35.3649 64.3295 37.1089 64.6044C44.8196 65.8874 52.5302 67.1703 60.3327 68.5449C67.0336 69.6445 73.6427 70.7442 80.3436 71.8439C85.7594 72.7603 91.267 73.6766 96.6828 74.593C98.1515 74.868 98.4269 74.593 98.5187 73.1268C99.4366 65.7041 100.263 58.1897 101.089 50.767C101.456 47.468 101.823 44.2606 102.19 40.9616C102.19 40.3201 102.19 39.6787 101.915 39.0372C101.089 37.1128 100.171 35.1884 99.3448 33.264C98.7023 31.981 97.7843 31.2479 96.2239 30.973C84.6579 28.8653 73.0919 26.7576 61.6178 24.6499C51.1533 22.7255 40.6889 20.8011 30.1326 18.8767C21.963 17.4105 13.8852 15.8526 5.71562 14.3864C4.98127 14.2948 4.24693 14.0198 3.42078 13.8366ZM93.6536 64.971C93.2865 64.971 93.1947 64.971 93.0111 64.8793C83.5564 62.8633 74.1017 60.7556 64.6469 58.7395C52.9892 56.2653 41.3314 53.791 29.6737 51.3168C28.4804 51.0419 27.2871 50.8586 26.0937 50.6753C24.9922 50.492 24.5333 50.9502 24.8086 51.9583C24.9922 52.5081 24.8086 52.9663 24.625 53.4245C22.7892 57.8231 21.0451 62.2218 19.2092 66.5288C19.1174 66.8037 18.9339 67.0787 18.6585 67.5368C18.2913 66.0706 17.9241 64.7877 17.557 63.5964C16.0883 58.4646 14.6196 53.3328 13.2427 48.2011C12.9673 47.3763 12.6919 46.8265 11.774 46.4599C9.66273 45.7268 7.55148 44.8104 5.44024 44.0773C4.33872 43.6191 3.2372 43.1609 2.04388 42.7028C2.87002 33.8138 3.60437 24.9248 4.43051 15.9442C35.4567 21.5342 66.2992 27.0325 97.3254 32.6225C96.0403 43.4359 94.847 54.1576 93.6536 64.971ZM97.2336 70.4693C97.1418 70.4693 97.05 70.4693 96.9582 70.5609C96.4074 69.3696 95.8567 68.1783 95.3977 66.987C95.3059 66.8037 95.3977 66.5288 95.3977 66.3455C95.6731 64.3295 95.9485 62.3134 96.1321 60.389C96.8664 53.8827 97.509 47.3763 98.2433 40.7783C98.4269 39.4038 98.6105 38.0292 98.7023 36.563C100.446 38.8539 100.814 40.2285 100.538 42.7944C99.9874 47.2847 99.5284 51.775 98.9777 56.1736C98.3351 60.9389 97.7844 65.7041 97.2336 70.4693ZM32.7947 54.5242C32.8865 54.4325 32.9782 54.3409 32.9782 54.2492C34.6305 54.6158 36.2828 54.9823 37.9351 55.2573C38.6694 55.3489 39.0366 55.8071 39.4038 56.3569C40.5053 58.2813 41.6068 60.1141 42.7083 61.9469C42.8919 62.3134 43.1673 62.7716 43.4427 63.3215C41.4232 62.9549 39.6792 62.68 37.8433 62.4051C37.2007 62.3134 36.9254 61.9469 36.5582 61.3971C35.6403 59.6559 34.6305 57.8231 33.6208 56.082C33.3454 55.6238 33.07 55.074 32.7947 54.5242ZM56.1102 65.2459C56.0184 65.3375 55.9266 65.4292 55.9266 65.5208C54.1825 65.2459 52.4384 64.8793 50.6944 64.6044C50.0518 64.5128 49.8682 64.0546 49.6846 63.5964C48.8585 61.7636 48.0324 60.0225 47.298 58.1897C47.2062 57.9148 47.1144 57.6399 46.9308 57.1817C48.6749 57.5482 50.3272 57.8231 51.8877 58.1897C52.1631 58.2813 52.5302 58.4646 52.7138 58.6479C53.8153 60.8472 55.0086 63.0466 56.1102 65.2459ZM2.68644 44.9937C3.2372 45.177 3.51258 45.177 3.78796 45.2686C5.62383 45.9101 7.45969 46.6432 9.29556 47.3763C11.315 48.1094 11.315 48.1094 11.8658 50.2171C12.1412 51.0419 12.5083 51.9583 12.4165 52.9663C9.75452 51.6833 7.27611 50.4004 4.70589 49.2091C4.52231 49.1175 4.24692 48.9342 4.15513 48.7509C3.69616 47.6512 3.2372 46.4599 2.68644 44.9937ZM60.5162 60.0225C62.0767 60.2974 63.4536 60.6639 64.8305 60.8472C65.5649 60.9389 66.0238 61.3971 66.391 62.0385C66.9418 63.2298 67.5843 64.4211 68.2269 65.5208C68.5941 66.1623 68.9612 66.8954 69.512 67.8118C67.9515 67.5368 66.6664 67.2619 65.3813 67.0787C64.5552 66.987 64.0962 66.5288 63.729 65.7957C62.9947 64.3295 62.1685 62.9549 61.3424 61.4887C61.067 61.1221 60.7916 60.7556 60.5162 60.0225ZM54.2743 58.7395C55.8348 59.0145 57.0281 59.2894 58.3132 59.5643C58.5886 59.6559 58.864 60.0225 59.0476 60.2974C60.0573 62.0385 60.9752 63.688 61.8931 65.4292C62.0767 65.7041 62.1685 66.0706 62.3521 66.6205C60.8834 66.3455 59.6901 66.1623 58.405 65.8874C58.1296 65.7957 57.7624 65.5208 57.5789 65.2459C56.5691 63.2298 55.5594 61.1221 54.2743 58.7395ZM40.7807 55.8987C42.2494 56.1736 43.5345 56.4486 44.7278 56.7235C44.9114 56.7235 45.095 56.9984 45.1868 57.1817C46.2883 59.4726 47.3898 61.7636 48.4913 64.1462C47.3898 63.9629 46.5637 63.9629 45.6457 63.688C45.2786 63.5964 44.9114 63.2298 44.7278 62.9549C44.0852 62.0385 43.6263 61.0305 43.0755 60.0225C42.433 58.8312 41.6986 57.5482 40.7807 55.8987ZM27.746 53.1496C28.4804 53.3329 29.0311 53.4245 29.4901 53.5161C30.408 53.6078 30.867 54.066 31.326 54.7991C32.0603 56.1736 32.8865 57.5482 33.7126 58.9228C34.2634 59.8392 34.7223 60.7556 35.3649 62.0385C33.988 61.7636 32.8865 61.5803 31.8767 61.3054C31.6931 61.2138 31.4178 60.9389 31.326 60.7556C30.1327 58.2813 29.0311 55.8987 27.746 53.1496ZM75.295 68.9114C73.8263 68.6365 72.7248 68.4532 71.6233 68.27C71.3479 68.1783 70.8889 67.9034 70.7971 67.6285C69.6956 65.7041 68.6859 63.688 67.4007 61.4887C68.9612 61.7636 70.1545 62.0385 71.3479 62.3134C71.5314 62.3134 71.715 62.5884 71.8068 62.7716C73.0001 64.6961 74.1017 66.6205 75.295 68.9114ZM86.0348 70.8358C84.6579 70.5609 83.5564 70.3776 82.4549 70.1944C81.7205 70.1027 81.3533 69.8278 81.1698 69.1863C80.619 67.7201 79.9764 66.3456 79.3339 64.971C79.2421 64.6961 79.1503 64.4211 79.0585 63.9629C80.3436 64.2379 81.5369 64.4211 82.6385 64.6961C82.9138 64.7877 83.281 65.0626 83.4646 65.3375C84.2907 66.987 85.1169 68.7281 86.0348 70.8358ZM26.2773 54.2492C27.6542 57.09 29.0311 59.7476 30.2244 62.4051C30.3162 62.5884 30.2244 62.9549 30.1326 63.1382C29.8573 63.5964 29.4901 63.9629 29.0311 64.4211C27.746 62.4051 26.4609 60.5723 25.2676 58.6479C25.084 58.2813 24.9922 57.7315 25.084 57.365C25.3594 56.4486 25.8184 55.5322 26.2773 54.2492ZM73.6427 62.8633C74.1017 62.9549 74.377 62.9549 74.6524 62.9549C76.5801 63.0466 77.6816 63.8713 78.2324 65.7041C78.5995 66.987 79.2421 68.1783 79.8847 69.6445C79.0585 69.5529 78.5078 69.4613 77.957 69.3696C77.1309 69.3696 76.6719 68.9114 76.3047 68.0867C75.8457 67.0787 75.295 66.1623 74.836 65.2459C74.5606 64.6044 74.1935 63.7797 73.6427 62.8633ZM95.7649 72.3937C94.6634 72.2104 93.8372 72.0271 93.1029 71.9355C92.4603 71.8439 92.185 71.4773 91.9096 70.9275C91.4506 69.6445 90.8998 68.4532 90.3491 67.1703C90.2573 66.8954 90.1655 66.6205 90.0737 66.1623C91.0834 66.3455 92.0014 66.5288 92.8275 66.7121C93.1029 66.8037 93.3783 66.8954 93.4701 67.1703C94.2044 68.8198 94.9388 70.4693 95.7649 72.3937ZM24.4415 59.9308C25.7266 61.8553 27.0117 63.7797 28.2968 65.7041C27.746 66.4372 27.2871 67.0787 26.7363 67.7201C26.002 66.7121 25.543 65.7041 24.7168 64.971C23.0646 63.5047 23.1564 61.8552 24.1661 60.1141C24.1661 60.1141 24.1661 60.1141 24.4415 59.9308ZM84.9333 65.1542C86.1266 65.3375 86.9527 65.5208 87.7789 65.7041C88.0543 65.7957 88.3296 65.979 88.4214 66.2539C89.1558 67.995 89.8901 69.6445 90.7163 71.569C89.7983 71.3857 88.9722 71.3857 88.2378 71.2024C87.9625 71.1108 87.5953 70.9275 87.5035 70.6526C86.6774 68.9114 85.8512 67.1703 84.9333 65.1542ZM23.8907 71.294C23.1564 70.1027 22.422 68.9114 21.6877 67.7201C21.5959 67.5368 21.5041 67.2619 21.5959 67.0787C21.8712 66.2539 22.1466 65.4292 22.6056 64.4211C23.7989 66.0706 24.8086 67.5368 25.8184 69.0031C25.2676 69.7362 24.8086 70.3776 24.3497 71.0191C24.1661 71.0191 24.0743 71.1108 23.8907 71.294ZM20.7697 69.1863C21.1369 69.8278 21.4123 70.286 21.6877 70.7442C23.0646 72.9435 23.0646 72.9435 21.2287 74.8679C21.2287 74.8679 21.1369 74.868 20.9533 74.9596C20.6779 74.1348 20.4943 73.3101 20.1272 72.6686C19.6682 71.294 20.0354 70.3776 20.7697 69.1863Z" fill="#161439"/>
<path d="M54.9169 12.8284C54.9169 13.5616 55.1922 14.1114 55.8348 14.203C56.4773 14.2947 56.9363 14.0197 57.1199 13.195C57.3953 12.2786 57.5789 11.3622 57.6707 10.4458C57.946 7.5134 58.2214 4.48932 58.4968 1.55688C58.4968 1.28197 58.5886 0.915411 58.405 0.732133C58.1296 0.365578 57.7625 -0.000976562 57.4871 -0.000976562C57.2117 -0.000976562 56.7527 0.365578 56.5691 0.640494C56.2938 0.823772 56.2938 1.28197 56.2938 1.55688C55.8348 5.22243 55.3758 8.88798 54.9169 12.5535C54.9169 12.6452 54.9169 12.7368 54.9169 12.8284Z" fill="#161439"/>
<path d="M38.7612 5.22234C39.312 7.05511 39.9545 9.1628 40.5971 11.2705C40.6889 11.5454 40.8725 11.7287 41.0561 11.912C41.4232 12.2785 41.974 12.3702 42.3412 12.0036C42.6165 11.7287 42.7083 11.2705 42.6165 10.9039C42.0658 8.97952 41.515 7.05511 40.9643 5.1307C40.9643 4.85578 40.8725 4.58086 40.6889 4.30595C40.4135 3.75612 40.0463 3.57284 39.4038 3.66448C38.853 3.93939 38.6694 4.39759 38.7612 5.22234Z" fill="#161439"/>
<path d="M46.1047 6.23055C46.3801 8.15496 46.5637 10.0794 46.839 11.9121C46.839 12.0954 46.9308 12.462 47.0226 12.5536C47.298 12.7369 47.757 13.0118 48.1241 13.0118C48.5831 13.0118 48.8585 12.6453 48.8585 12.0954C48.8585 11.3623 48.7667 10.6292 48.6749 9.89609C48.4913 8.52151 48.3995 7.14693 48.2159 5.68071C48.2159 5.31416 48.2159 4.9476 48.0323 4.76433C47.757 4.48941 47.3898 4.21449 47.0226 4.21449C46.7472 4.21449 46.3801 4.58105 46.2883 4.9476C46.0129 5.31416 46.1047 5.77235 46.1047 6.23055Z" fill="#161439"/>
<path d="M65.9321 6.87193C65.5649 7.23848 65.1977 7.42176 65.0141 7.69668C64.2798 9.07126 63.5454 10.3542 62.8111 11.7288C62.7193 12.0037 62.5357 12.2786 62.5357 12.5535C62.6275 12.9201 62.9029 13.3783 63.1783 13.4699C63.4536 13.5616 64.0044 13.4699 64.188 13.195C65.1059 11.7288 65.9321 10.1709 66.7582 8.61306C66.85 8.42979 66.9418 7.97159 66.7582 7.78831C66.5746 7.5134 66.2992 7.33012 65.9321 6.87193Z" fill="#161439"/>
<path d="M71.8986 10.5375C71.715 10.6291 71.4397 10.8124 71.2561 10.9957C70.3381 12.0953 69.4202 13.1034 68.5023 14.203C68.2269 14.5696 68.1351 15.0278 68.5023 15.3027C68.7776 15.5776 69.2366 15.5776 69.6038 15.6692C69.7874 15.6692 70.0628 15.486 70.1545 15.3027C71.0725 14.2947 71.9904 13.2866 72.7248 12.187C73.2755 11.4539 72.8166 10.5375 71.8986 10.5375Z" fill="#161439"/>
<path d="M93.4701 36.5629C93.4701 36.4713 93.4701 36.1964 93.3783 36.0131C93.2865 35.8298 93.1029 35.5549 92.9193 35.5549C92.6439 35.5549 92.2768 35.6465 92.185 35.8298C92.0014 36.1047 91.9096 36.5629 91.8178 36.8378C91.1752 42.0612 90.4409 47.3763 89.7983 52.5997C89.7065 53.2412 89.6147 53.8826 89.523 54.5241C89.4312 55.3489 89.7065 55.7154 90.2573 55.807C90.8998 55.807 91.1752 55.4405 91.267 54.799C91.4506 53.6077 91.5424 52.5081 91.726 51.3168C92.2767 46.6432 92.8275 41.878 93.2865 37.2044C93.3783 37.0211 93.3783 36.8378 93.4701 36.5629Z" fill="#161439"/>
<path d="M8.19404 24.2833C8.19404 23.5502 8.28583 22.8171 8.28583 21.9924C8.28583 21.6258 8.28583 21.3509 8.28583 20.9843C8.19404 20.5261 8.10225 19.9763 7.4597 19.9763C6.90894 19.9763 6.90893 20.5261 6.81714 20.8927C6.72535 22.7255 6.63355 24.5582 6.44996 26.391C6.17458 29.9649 5.80741 33.5388 5.44024 37.2044C5.44024 37.5709 5.34845 37.9375 5.44024 38.3041C5.53203 38.579 5.80742 38.8539 6.0828 38.9455C6.35818 38.9455 6.72535 38.7622 6.81714 38.4873C7.00073 38.2124 7.00073 37.8459 7.00073 37.5709C7.3679 33.3556 7.73508 29.0485 8.01046 24.8332C8.19404 24.6499 8.19404 24.4666 8.19404 24.2833Z" fill="#161439"/>
<path d="M50.8779 27.1241C51.2451 26.4827 51.6123 26.1161 51.6123 25.7495C51.6123 25.2914 51.2451 25.0164 50.7861 25.0164C50.3272 25.0164 49.96 25.383 49.96 25.8412C50.0518 26.2077 50.419 26.4827 50.8779 27.1241Z" fill="#161439"/>
<path d="M64.3716 28.4069C64.4634 29.14 64.8305 29.415 65.3813 29.415C65.8403 29.3233 66.1156 29.0484 66.1156 28.5902C66.1156 28.132 65.5649 27.6738 65.1977 27.8571C64.7387 27.8571 64.5552 28.2236 64.3716 28.4069Z" fill="#161439"/>
<path d="M77.4062 31.1561C77.957 31.5226 78.3242 31.7976 78.5995 31.7976C79.0585 31.8892 79.4257 31.5226 79.4257 31.0645C79.4257 30.6063 79.0585 30.2397 78.5995 30.3313C78.2324 30.423 77.957 30.7895 77.4062 31.1561Z" fill="#161439"/>
<path d="M83.1892 31.6145C83.6482 31.981 83.8318 32.3476 84.1071 32.4392C84.4743 32.5308 84.8415 32.3476 84.9333 31.8894C85.0251 31.4312 84.7497 30.973 84.2907 31.0646C83.9236 31.0646 83.6482 31.3395 83.1892 31.6145Z" fill="#161439"/>
<path d="M87.7789 32.8057C88.4214 33.1722 88.6968 33.4472 88.9722 33.4472C89.4312 33.5388 89.7983 33.0806 89.7065 32.714C89.6147 32.4391 89.2476 32.0726 88.9722 32.0726C88.6968 32.0726 88.4214 32.4391 87.7789 32.8057Z" fill="#161439"/>
<path d="M23.7071 21.6257C24.1661 21.9922 24.3497 22.2671 24.7168 22.3588C25.084 22.4504 25.6348 21.9922 25.4512 21.6257C25.3594 21.3508 24.9922 20.9842 24.7168 20.9842C24.4415 20.9842 24.1661 21.3508 23.7071 21.6257Z" fill="#161439"/>
<path d="M14.5278 19.3349C14.2524 19.8847 13.977 20.1596 13.977 20.4345C14.0688 20.7095 14.436 20.8927 14.7114 21.076C14.8949 20.8011 15.3539 20.5262 15.3539 20.2513C15.3539 19.9764 14.8949 19.7014 14.5278 19.3349Z" fill="#161439"/>
<path d="M43.7181 24.6498C44.177 24.9248 44.4524 25.1997 44.7278 25.1997C44.9114 25.1997 45.2785 24.8331 45.2785 24.5582C45.3703 24.1916 44.8196 23.7334 44.4524 23.8251C44.2688 23.9167 44.0852 24.2833 43.7181 24.6498Z" fill="#161439"/>
<path d="M71.3479 30.698C71.715 30.2398 71.9904 29.9648 71.9904 29.6899C71.9904 29.5066 71.6233 29.0485 71.4397 29.0485C71.1643 29.1401 70.7053 29.415 70.7053 29.5983C70.7971 29.7816 71.0725 30.1481 71.3479 30.698Z" fill="#161439"/>
<path d="M55.1922 27.3989C55.743 27.7655 56.0184 28.132 56.2938 28.132C56.5691 28.132 56.8445 27.6738 56.9363 27.3989C56.9363 27.2156 56.5691 26.8491 56.3855 26.8491C56.0184 26.7574 55.743 27.0324 55.1922 27.3989Z" fill="#161439"/>
<path d="M28.8475 22.7254C29.3065 23.0004 29.5819 23.3669 29.8573 23.3669C30.0409 23.3669 30.408 23.0004 30.408 22.7254C30.4998 22.3589 30.1327 21.9923 29.6737 22.084C29.4901 22.084 29.3065 22.3589 28.8475 22.7254Z" fill="#161439"/>
<path d="M36.7418 23.8251C37.2007 24.1917 37.3843 24.4666 37.6597 24.4666C38.1187 24.5582 38.3941 24.2833 38.3941 23.8251C38.3941 23.5502 38.0269 23.1837 37.8433 23.1837C37.5679 23.2753 37.2925 23.5502 36.7418 23.8251Z" fill="#161439"/>
<path d="M18.2913 20.6177C18.6585 20.8926 18.8421 21.1675 19.1174 21.2591C19.5764 21.3508 19.8518 21.0759 19.8518 20.6177C19.8518 20.1595 19.5764 19.8846 19.1174 19.9762C18.8421 20.0678 18.6585 20.3427 18.2913 20.6177Z" fill="#161439"/>
<path d="M14.6461 37.864L16.137 29.265L17.955 29.5802L16.724 36.6803L20.4105 37.3194L20.1506 38.8184L14.6461 37.864ZM24.6635 30.7433L23.1727 39.3423L21.3546 39.0271L22.8455 30.4281L24.6635 30.7433ZM27.7129 31.272L28.6585 38.1656L28.7383 38.1794L31.9536 32.0072L33.969 32.3567L29.5138 40.4417L27.1709 40.0355L25.6933 30.9219L27.7129 31.272ZM33.5131 41.1351L35.0039 32.5361L40.7982 33.5407L40.5383 35.0396L36.5621 34.3502L36.2069 36.3992L39.885 37.0369L39.6251 38.5359L35.947 37.8982L35.591 39.9513L39.584 40.6436L39.3241 42.1426L33.5131 41.1351ZM52.0453 38.5916L50.2062 38.2728C50.2139 38.029 50.182 37.8058 50.1104 37.6031C50.0394 37.3976 49.9341 37.215 49.7945 37.0553C49.655 36.8956 49.4849 36.7623 49.2843 36.6554C49.0865 36.5491 48.8644 36.4745 48.6181 36.4318C48.173 36.3547 47.7662 36.398 47.3976 36.5619C47.0294 36.7229 46.718 36.9976 46.4632 37.386C46.209 37.7715 46.0302 38.2624 45.9268 38.8586C45.8205 39.4716 45.8222 40.0024 45.9318 40.451C46.0442 40.9001 46.2472 41.2597 46.5406 41.5297C46.834 41.7997 47.1976 41.9723 47.6315 42.0475C47.875 42.0897 48.106 42.0966 48.3243 42.0682C48.5453 42.0402 48.7477 41.9787 48.9315 41.8837C49.1156 41.7858 49.2765 41.6566 49.4139 41.4959C49.5541 41.3357 49.6651 41.1444 49.7469 40.9222L51.5845 41.2494C51.4685 41.6359 51.2835 41.9959 51.0296 42.3296C50.7789 42.661 50.4691 42.9432 50.1 43.1761C49.7342 43.4068 49.317 43.568 48.8484 43.6598C48.3831 43.7492 47.8747 43.7461 47.3233 43.6505C46.5563 43.5176 45.9006 43.2251 45.3562 42.7732C44.8146 42.3218 44.4258 41.7368 44.19 41.0184C43.9569 40.3004 43.9214 39.4739 44.0835 38.539C44.2461 37.6013 44.5608 36.8341 45.0275 36.2375C45.4943 35.6408 46.0598 35.2227 46.7241 34.9833C47.3889 34.741 48.0992 34.6854 48.8549 34.8164C49.3532 34.9028 49.8029 35.0529 50.2041 35.2666C50.6081 35.4808 50.952 35.7509 51.2357 36.0769C51.5199 36.4001 51.7321 36.7727 51.8722 37.1949C52.0152 37.6176 52.0729 38.0832 52.0453 38.5916ZM52.3801 44.4062L53.8709 35.8072L55.689 36.1224L54.458 43.2224L58.1445 43.8616L57.8846 45.3605L52.3801 44.4062ZM60.7901 45.8643L58.8419 45.5265L63.3013 37.4422L65.6442 37.8484L67.1176 46.9613L65.1694 46.6235L64.1656 39.6161L64.0984 39.6044L60.7901 45.8643ZM61.2544 42.4632L65.8562 43.261L65.6101 44.6802L61.0083 43.8823L61.2544 42.4632ZM73.6832 41.7895C73.7083 41.445 73.6098 41.1569 73.3876 40.9252C73.1653 40.6935 72.8359 40.5398 72.3992 40.4641C72.1025 40.4126 71.8447 40.4112 71.6258 40.4597C71.4074 40.5055 71.231 40.5916 71.0966 40.7183C70.965 40.8454 70.8832 41.0013 70.8512 41.1861C70.8189 41.339 70.8278 41.479 70.8778 41.6059C70.9307 41.7333 71.0129 41.8499 71.1243 41.9557C71.2362 42.0587 71.3693 42.1553 71.5238 42.2455C71.6788 42.3329 71.8464 42.4139 72.0266 42.4884L72.7672 42.8071C73.1277 42.9561 73.4526 43.1278 73.7418 43.3221C74.0311 43.5164 74.2727 43.7356 74.4668 43.9797C74.6609 44.2239 74.797 44.4954 74.8749 44.7944C74.9556 45.0938 74.9663 45.4229 74.907 45.7817C74.8129 46.3074 74.5995 46.7404 74.2666 47.0806C73.937 47.4185 73.5046 47.6506 72.9695 47.7769C72.4376 47.9009 71.8218 47.9023 71.122 47.781C70.4278 47.6606 69.8417 47.4494 69.3635 47.1474C68.8881 46.8459 68.5424 46.4615 68.3264 45.9945C68.1137 45.5251 68.054 44.9799 68.1473 44.3589L69.9065 44.6639C69.8761 44.9556 69.917 45.2106 70.029 45.429C70.1444 45.6451 70.3167 45.8234 70.5461 45.9641C70.7787 46.1025 71.0518 46.1988 71.3653 46.2532C71.6732 46.3066 71.9483 46.3081 72.1905 46.2579C72.4356 46.2081 72.6349 46.1144 72.7885 45.9766C72.9422 45.8389 73.0369 45.6665 73.0729 45.4594C73.1063 45.2662 73.0771 45.0939 72.9851 44.9425C72.896 44.7915 72.7503 44.6509 72.5479 44.5207C72.3484 44.3909 72.0985 44.2611 71.7981 44.1312L70.9025 43.7337C70.2081 43.4317 69.6835 43.0567 69.3286 42.6088C68.9738 42.1609 68.8528 41.6195 68.9658 40.9846C69.0533 40.4635 69.2707 40.0326 69.6181 39.6921C69.9682 39.352 70.4086 39.1155 70.9391 38.9826C71.4696 38.8497 72.0483 38.8376 72.6754 38.9463C73.3136 39.0569 73.8517 39.2627 74.2897 39.5635C74.7305 39.8648 75.0501 40.2331 75.2486 40.6683C75.447 41.1035 75.506 41.5779 75.4256 42.0916L73.6832 41.7895ZM81.4309 43.1328C81.456 42.7883 81.3575 42.5001 81.1353 42.2684C80.913 42.0367 80.5836 41.883 80.1469 41.8073C79.8502 41.7559 79.5924 41.7544 79.3735 41.803C79.1551 41.8487 78.9787 41.9349 78.8443 42.0615C78.7127 42.1887 78.6309 42.3446 78.5989 42.5293C78.5666 42.6823 78.5755 42.8223 78.6255 42.9491C78.6784 43.0765 78.7606 43.1931 78.872 43.2989C78.9839 43.402 79.117 43.4986 79.2715 43.5888C79.4265 43.6762 79.5941 43.7572 79.7743 43.8317L80.5149 44.1503C80.8754 44.2994 81.2003 44.471 81.4895 44.6653C81.7788 44.8596 82.0204 45.0789 82.2145 45.323C82.4086 45.5671 82.5447 45.8387 82.6226 46.1376C82.7033 46.4371 82.714 46.7662 82.6547 47.1249C82.5606 47.6507 82.3472 48.0837 82.0143 48.4238C81.6847 48.7617 81.2523 48.9938 80.7172 49.1202C80.1853 49.2442 79.5695 49.2456 78.8697 49.1242C78.1755 49.0039 77.5893 48.7927 77.1112 48.4907C76.6358 48.1891 76.2901 47.8048 76.0741 47.3378C75.8614 46.8684 75.8017 46.3232 75.895 45.7021L77.6542 46.0071C77.6238 46.2989 77.6647 46.5539 77.7767 46.7723C77.8921 46.9883 78.0644 47.1667 78.2938 47.3074C78.5264 47.4458 78.7995 47.5421 79.113 47.5965C79.4209 47.6498 79.696 47.6514 79.9382 47.6011C80.1833 47.5514 80.3826 47.4576 80.5362 47.3199C80.6899 47.1822 80.7846 47.0098 80.8206 46.8026C80.854 46.6095 80.8248 46.4372 80.7328 46.2857C80.6437 46.1348 80.498 45.9942 80.2956 45.8639C80.0961 45.7342 79.8462 45.6044 79.5458 45.4744L78.6502 45.077C77.9558 44.7749 77.4312 44.4 77.0763 43.9521C76.7215 43.5042 76.6005 42.9628 76.7135 42.3279C76.801 41.8068 77.0184 41.3759 77.3658 41.0354C77.7159 40.6953 78.1563 40.4588 78.6868 40.3259C79.2173 40.193 79.796 40.1809 80.4231 40.2896C81.0613 40.4002 81.5994 40.606 82.0374 40.9068C82.4782 41.2081 82.7978 41.5764 82.9963 42.0115C83.1947 42.4467 83.2537 42.9212 83.1733 43.4349L81.4309 43.1328Z" fill="#5751E1"/>
</svg>
