<svg width="161" height="51" viewBox="0 0 161 51" fill="none" xmlns="http://www.w3.org/2000/svg">
<rect width="161" height="51" fill="#1C1B3C"/>
<path d="M31.1289 33.7485C30.0035 35.3604 28.8103 36.9333 26.9934 36.9593C25.1766 36.9983 24.5935 35.9323 22.5326 35.9323C20.4581 35.9323 19.8208 36.9333 18.0988 36.9983C16.3226 37.0633 14.9803 35.2824 13.8414 33.7095C11.5228 30.4987 9.74661 24.5841 12.133 20.6064C13.3126 18.6305 15.4278 17.3826 17.7192 17.3436C19.4547 17.3176 21.1089 18.4745 22.1801 18.4745C23.2376 18.4745 25.2444 17.0836 27.346 17.2916C28.2273 17.3306 30.695 17.6296 32.2814 19.8654C32.1594 19.9434 29.3391 21.5293 29.3662 24.8181C29.4069 28.7438 32.9593 30.0567 33 30.0697C32.9593 30.1607 32.4305 31.9416 31.1289 33.7485ZM23.3868 12.9499C24.3766 11.8709 26.0172 11.052 27.3731 11C27.5494 12.5209 26.9121 14.0548 25.963 15.1467C25.0274 16.2517 23.4817 17.1096 21.9631 16.9926C21.7597 15.4977 22.519 13.9378 23.3868 12.9499Z" fill="white"/>
<path d="M47.9232 19V17.968H50.2392C50.8552 17.968 51.3952 17.836 51.8592 17.572C52.3232 17.3 52.6832 16.928 52.9392 16.456C53.2032 15.984 53.3352 15.44 53.3352 14.824C53.3352 14.216 53.2032 13.676 52.9392 13.204C52.6752 12.732 52.3112 12.364 51.8472 12.1C51.3832 11.836 50.8472 11.704 50.2392 11.704H47.9352V10.672H50.2632C50.8712 10.672 51.4312 10.776 51.9432 10.984C52.4632 11.192 52.9112 11.484 53.2872 11.86C53.6712 12.236 53.9672 12.676 54.1752 13.18C54.3912 13.684 54.4992 14.236 54.4992 14.836C54.4992 15.428 54.3912 15.98 54.1752 16.492C53.9672 16.996 53.6752 17.436 53.2992 17.812C52.9232 18.188 52.4752 18.48 51.9552 18.688C51.4432 18.896 50.8872 19 50.2872 19H47.9232ZM47.1792 19V10.672H48.3072V19H47.1792ZM58.594 19.12C58.034 19.12 57.53 18.988 57.082 18.724C56.634 18.46 56.278 18.104 56.014 17.656C55.75 17.2 55.618 16.692 55.618 16.132C55.618 15.58 55.75 15.084 56.014 14.644C56.278 14.196 56.634 13.84 57.082 13.576C57.53 13.312 58.034 13.18 58.594 13.18C59.146 13.18 59.646 13.312 60.094 13.576C60.55 13.832 60.91 14.184 61.174 14.632C61.438 15.08 61.57 15.58 61.57 16.132C61.57 16.692 61.438 17.2 61.174 17.656C60.91 18.104 60.55 18.46 60.094 18.724C59.646 18.988 59.146 19.12 58.594 19.12ZM58.594 18.076C58.954 18.076 59.274 17.992 59.554 17.824C59.834 17.656 60.054 17.428 60.214 17.14C60.374 16.844 60.454 16.508 60.454 16.132C60.454 15.764 60.37 15.436 60.202 15.148C60.042 14.86 59.822 14.636 59.542 14.476C59.27 14.308 58.954 14.224 58.594 14.224C58.234 14.224 57.914 14.308 57.634 14.476C57.354 14.636 57.134 14.86 56.974 15.148C56.814 15.436 56.734 15.764 56.734 16.132C56.734 16.508 56.814 16.844 56.974 17.14C57.134 17.428 57.354 17.656 57.634 17.824C57.914 17.992 58.234 18.076 58.594 18.076ZM64.3748 19L62.1188 13.3H63.2468L64.8788 17.74H64.5188L66.1388 13.3H66.7628L68.3828 17.74H68.0228L69.6548 13.3H70.7828L68.5388 19H67.9028L66.2588 14.692H66.6548L64.9988 19H64.3748ZM75.8948 19V15.676C75.8948 15.244 75.7588 14.888 75.4868 14.608C75.2148 14.328 74.8628 14.188 74.4308 14.188C74.1428 14.188 73.8868 14.252 73.6628 14.38C73.4388 14.508 73.2628 14.684 73.1348 14.908C73.0068 15.132 72.9428 15.388 72.9428 15.676L72.4988 15.424C72.4988 14.992 72.5948 14.608 72.7868 14.272C72.9788 13.936 73.2468 13.672 73.5908 13.48C73.9348 13.28 74.3228 13.18 74.7548 13.18C75.1868 13.18 75.5668 13.288 75.8948 13.504C76.2308 13.72 76.4948 14.004 76.6868 14.356C76.8788 14.7 76.9748 15.068 76.9748 15.46V19H75.8948ZM71.8628 19V13.3H72.9428V19H71.8628ZM78.557 19V10.432H79.637V19H78.557ZM83.9412 19.12C83.3812 19.12 82.8772 18.988 82.4292 18.724C81.9812 18.46 81.6252 18.104 81.3612 17.656C81.0972 17.2 80.9652 16.692 80.9652 16.132C80.9652 15.58 81.0972 15.084 81.3612 14.644C81.6252 14.196 81.9812 13.84 82.4292 13.576C82.8772 13.312 83.3812 13.18 83.9412 13.18C84.4932 13.18 84.9932 13.312 85.4412 13.576C85.8972 13.832 86.2572 14.184 86.5212 14.632C86.7852 15.08 86.9172 15.58 86.9172 16.132C86.9172 16.692 86.7852 17.2 86.5212 17.656C86.2572 18.104 85.8972 18.46 85.4412 18.724C84.9932 18.988 84.4932 19.12 83.9412 19.12ZM83.9412 18.076C84.3012 18.076 84.6212 17.992 84.9012 17.824C85.1812 17.656 85.4012 17.428 85.5612 17.14C85.7212 16.844 85.8012 16.508 85.8012 16.132C85.8012 15.764 85.7172 15.436 85.5492 15.148C85.3892 14.86 85.1692 14.636 84.8892 14.476C84.6172 14.308 84.3012 14.224 83.9412 14.224C83.5812 14.224 83.2612 14.308 82.9812 14.476C82.7012 14.636 82.4812 14.86 82.3212 15.148C82.1612 15.436 82.0812 15.764 82.0812 16.132C82.0812 16.508 82.1612 16.844 82.3212 17.14C82.4812 17.428 82.7012 17.656 82.9812 17.824C83.2612 17.992 83.5812 18.076 83.9412 18.076ZM90.678 19.12C90.158 19.12 89.686 18.992 89.262 18.736C88.838 18.472 88.502 18.116 88.254 17.668C88.014 17.22 87.894 16.716 87.894 16.156C87.894 15.596 88.014 15.092 88.254 14.644C88.502 14.196 88.834 13.84 89.25 13.576C89.674 13.312 90.15 13.18 90.678 13.18C91.11 13.18 91.494 13.272 91.83 13.456C92.174 13.632 92.45 13.88 92.658 14.2C92.866 14.512 92.982 14.876 93.006 15.292V17.008C92.982 17.416 92.866 17.78 92.658 18.1C92.458 18.42 92.186 18.672 91.842 18.856C91.506 19.032 91.118 19.12 90.678 19.12ZM90.858 18.1C91.394 18.1 91.826 17.92 92.154 17.56C92.482 17.192 92.646 16.724 92.646 16.156C92.646 15.764 92.57 15.424 92.418 15.136C92.274 14.84 92.066 14.612 91.794 14.452C91.522 14.284 91.206 14.2 90.846 14.2C90.486 14.2 90.166 14.284 89.886 14.452C89.614 14.62 89.398 14.852 89.238 15.148C89.086 15.436 89.01 15.768 89.01 16.144C89.01 16.528 89.086 16.868 89.238 17.164C89.398 17.452 89.618 17.68 89.898 17.848C90.178 18.016 90.498 18.1 90.858 18.1ZM92.574 19V17.464L92.778 16.072L92.574 14.692V13.3H93.666V19H92.574ZM97.7704 19.12C97.2424 19.12 96.7704 18.992 96.3544 18.736C95.9384 18.472 95.6064 18.116 95.3584 17.668C95.1184 17.22 94.9984 16.716 94.9984 16.156C94.9984 15.596 95.1184 15.092 95.3584 14.644C95.6064 14.196 95.9384 13.84 96.3544 13.576C96.7704 13.312 97.2424 13.18 97.7704 13.18C98.1944 13.18 98.5784 13.272 98.9224 13.456C99.2664 13.632 99.5424 13.88 99.7504 14.2C99.9664 14.512 100.086 14.876 100.11 15.292V17.008C100.086 17.416 99.9704 17.78 99.7624 18.1C99.5544 18.42 99.2784 18.672 98.9344 18.856C98.5904 19.032 98.2024 19.12 97.7704 19.12ZM97.9504 18.1C98.3104 18.1 98.6224 18.016 98.8864 17.848C99.1584 17.68 99.3704 17.452 99.5224 17.164C99.6744 16.868 99.7504 16.532 99.7504 16.156C99.7504 15.764 99.6704 15.424 99.5104 15.136C99.3584 14.848 99.1464 14.62 98.8744 14.452C98.6104 14.284 98.2984 14.2 97.9384 14.2C97.5784 14.2 97.2624 14.284 96.9904 14.452C96.7184 14.62 96.5024 14.852 96.3424 15.148C96.1904 15.436 96.1144 15.768 96.1144 16.144C96.1144 16.528 96.1904 16.868 96.3424 17.164C96.5024 17.452 96.7184 17.68 96.9904 17.848C97.2704 18.016 97.5904 18.1 97.9504 18.1ZM100.77 19H99.6784V17.464L99.8824 16.072L99.6784 14.692V10.432H100.77V19ZM109.063 19.12C108.471 19.12 107.919 19.012 107.407 18.796C106.895 18.572 106.447 18.264 106.063 17.872C105.679 17.472 105.379 17.012 105.163 16.492C104.955 15.972 104.851 15.416 104.851 14.824C104.851 14.224 104.955 13.668 105.163 13.156C105.379 12.636 105.675 12.18 106.051 11.788C106.435 11.396 106.879 11.092 107.383 10.876C107.895 10.66 108.447 10.552 109.039 10.552C109.631 10.552 110.179 10.66 110.683 10.876C111.195 11.092 111.643 11.396 112.027 11.788C112.411 12.18 112.711 12.636 112.927 13.156C113.143 13.676 113.251 14.236 113.251 14.836C113.251 15.428 113.143 15.984 112.927 16.504C112.711 17.024 112.411 17.48 112.027 17.872C111.651 18.264 111.207 18.572 110.695 18.796C110.191 19.012 109.647 19.12 109.063 19.12ZM109.039 18.04C109.639 18.04 110.163 17.904 110.611 17.632C111.067 17.352 111.427 16.972 111.691 16.492C111.955 16.004 112.087 15.448 112.087 14.824C112.087 14.36 112.011 13.936 111.859 13.552C111.707 13.16 111.495 12.82 111.223 12.532C110.951 12.244 110.631 12.024 110.263 11.872C109.895 11.712 109.487 11.632 109.039 11.632C108.447 11.632 107.923 11.768 107.467 12.04C107.019 12.312 106.663 12.688 106.399 13.168C106.143 13.648 106.015 14.2 106.015 14.824C106.015 15.288 106.087 15.72 106.231 16.12C106.383 16.512 106.591 16.852 106.855 17.14C107.127 17.42 107.447 17.64 107.815 17.8C108.191 17.96 108.599 18.04 109.039 18.04ZM118.758 19V15.676C118.758 15.244 118.622 14.888 118.35 14.608C118.078 14.328 117.726 14.188 117.294 14.188C117.006 14.188 116.75 14.252 116.526 14.38C116.302 14.508 116.126 14.684 115.998 14.908C115.87 15.132 115.806 15.388 115.806 15.676L115.362 15.424C115.362 14.992 115.458 14.608 115.65 14.272C115.842 13.936 116.11 13.672 116.454 13.48C116.798 13.28 117.186 13.18 117.618 13.18C118.05 13.18 118.43 13.288 118.758 13.504C119.094 13.72 119.358 14.004 119.55 14.356C119.742 14.7 119.838 15.068 119.838 15.46V19H118.758ZM114.726 19V13.3H115.806V19H114.726ZM126.249 19V10.912H127.377V19H126.249ZM123.417 11.704V10.672H130.197V11.704H123.417ZM135.501 19V15.676C135.501 15.244 135.365 14.888 135.093 14.608C134.821 14.328 134.469 14.188 134.037 14.188C133.749 14.188 133.493 14.252 133.269 14.38C133.045 14.508 132.869 14.684 132.741 14.908C132.613 15.132 132.549 15.388 132.549 15.676L132.105 15.424C132.105 14.992 132.201 14.608 132.393 14.272C132.585 13.936 132.853 13.672 133.197 13.48C133.541 13.28 133.929 13.18 134.361 13.18C134.793 13.18 135.173 13.276 135.501 13.468C135.837 13.66 136.101 13.928 136.293 14.272C136.485 14.616 136.581 15.012 136.581 15.46V19H135.501ZM131.469 19V10.432H132.549V19H131.469ZM140.803 19.12C140.235 19.12 139.723 18.992 139.267 18.736C138.811 18.472 138.451 18.116 138.187 17.668C137.923 17.22 137.791 16.712 137.791 16.144C137.791 15.584 137.919 15.08 138.175 14.632C138.439 14.184 138.791 13.832 139.231 13.576C139.679 13.312 140.179 13.18 140.731 13.18C141.259 13.18 141.723 13.3 142.123 13.54C142.531 13.78 142.847 14.112 143.071 14.536C143.303 14.96 143.419 15.44 143.419 15.976C143.419 16.056 143.415 16.144 143.407 16.24C143.399 16.328 143.383 16.432 143.359 16.552H138.547V15.652H142.783L142.387 16C142.387 15.616 142.319 15.292 142.183 15.028C142.047 14.756 141.855 14.548 141.607 14.404C141.359 14.252 141.059 14.176 140.707 14.176C140.339 14.176 140.015 14.256 139.735 14.416C139.455 14.576 139.239 14.8 139.087 15.088C138.935 15.376 138.859 15.716 138.859 16.108C138.859 16.508 138.939 16.86 139.099 17.164C139.259 17.46 139.487 17.692 139.783 17.86C140.079 18.02 140.419 18.1 140.803 18.1C141.123 18.1 141.415 18.044 141.679 17.932C141.951 17.82 142.183 17.652 142.375 17.428L143.071 18.136C142.799 18.456 142.463 18.7 142.063 18.868C141.671 19.036 141.251 19.12 140.803 19.12Z" fill="#B2BBCC"/>
<path d="M45.1699 37L49.7779 25.8H51.0579L55.6339 37H53.6499L50.0659 27.928H50.7379L47.1219 37H45.1699ZM47.4419 34.84V33.24H53.3779V34.84H47.4419ZM61.2683 37.16C60.6816 37.16 60.159 37.0373 59.7003 36.792C59.2416 36.536 58.879 36.1893 58.6123 35.752C58.3563 35.3147 58.2283 34.8187 58.2283 34.264V32.056C58.2283 31.5013 58.3616 31.0053 58.6283 30.568C58.895 30.1307 59.2576 29.7893 59.7163 29.544C60.175 29.288 60.6923 29.16 61.2683 29.16C61.9616 29.16 62.5856 29.3413 63.1403 29.704C63.7056 30.056 64.1483 30.536 64.4683 31.144C64.799 31.7413 64.9643 32.4187 64.9643 33.176C64.9643 33.9227 64.799 34.6 64.4683 35.208C64.1483 35.8053 63.7056 36.28 63.1403 36.632C62.5856 36.984 61.9616 37.16 61.2683 37.16ZM60.9803 35.496C61.407 35.496 61.7803 35.4 62.1003 35.208C62.431 35.0053 62.687 34.728 62.8683 34.376C63.0603 34.024 63.1563 33.6187 63.1563 33.16C63.1563 32.7013 63.0603 32.296 62.8683 31.944C62.687 31.592 62.431 31.32 62.1003 31.128C61.7803 30.9253 61.407 30.824 60.9803 30.824C60.5536 30.824 60.175 30.9253 59.8443 31.128C59.5136 31.32 59.2576 31.592 59.0763 31.944C58.895 32.296 58.8043 32.7013 58.8043 33.16C58.8043 33.6187 58.895 34.024 59.0763 34.376C59.2576 34.728 59.5136 35.0053 59.8443 35.208C60.175 35.4 60.5536 35.496 60.9803 35.496ZM57.1563 40.2V29.32H58.9163V31.384L58.6123 33.256L58.9163 35.112V40.2H57.1563ZM70.7096 37.16C70.1229 37.16 69.6002 37.0373 69.1416 36.792C68.6829 36.536 68.3202 36.1893 68.0536 35.752C67.7976 35.3147 67.6696 34.8187 67.6696 34.264V32.056C67.6696 31.5013 67.8029 31.0053 68.0696 30.568C68.3362 30.1307 68.6989 29.7893 69.1576 29.544C69.6162 29.288 70.1336 29.16 70.7096 29.16C71.4029 29.16 72.0269 29.3413 72.5816 29.704C73.1469 30.056 73.5896 30.536 73.9096 31.144C74.2402 31.7413 74.4056 32.4187 74.4056 33.176C74.4056 33.9227 74.2402 34.6 73.9096 35.208C73.5896 35.8053 73.1469 36.28 72.5816 36.632C72.0269 36.984 71.4029 37.16 70.7096 37.16ZM70.4216 35.496C70.8482 35.496 71.2216 35.4 71.5416 35.208C71.8722 35.0053 72.1282 34.728 72.3096 34.376C72.5016 34.024 72.5976 33.6187 72.5976 33.16C72.5976 32.7013 72.5016 32.296 72.3096 31.944C72.1282 31.592 71.8722 31.32 71.5416 31.128C71.2216 30.9253 70.8482 30.824 70.4216 30.824C69.9949 30.824 69.6162 30.9253 69.2856 31.128C68.9549 31.32 68.6989 31.592 68.5176 31.944C68.3362 32.296 68.2456 32.7013 68.2456 33.16C68.2456 33.6187 68.3362 34.024 68.5176 34.376C68.6989 34.728 68.9549 35.0053 69.2856 35.208C69.6162 35.4 69.9949 35.496 70.4216 35.496ZM66.5976 40.2V29.32H68.3576V31.384L68.0536 33.256L68.3576 35.112V40.2H66.5976ZM76.0388 37V25.48H77.7988V37H76.0388ZM83.4856 37.16C82.7176 37.16 82.0242 36.9893 81.4056 36.648C80.7976 36.296 80.3122 35.816 79.9496 35.208C79.5976 34.6 79.4216 33.9173 79.4216 33.16C79.4216 32.4027 79.5976 31.7253 79.9496 31.128C80.3016 30.52 80.7762 30.04 81.3736 29.688C81.9816 29.336 82.6536 29.16 83.3896 29.16C84.1042 29.16 84.7336 29.3253 85.2776 29.656C85.8322 29.9867 86.2642 30.44 86.5736 31.016C86.8936 31.592 87.0536 32.248 87.0536 32.984C87.0536 33.112 87.0429 33.2453 87.0216 33.384C87.0109 33.512 86.9896 33.656 86.9576 33.816H80.6536V32.376H86.0456L85.3896 32.952C85.3682 32.4827 85.2776 32.088 85.1176 31.768C84.9576 31.448 84.7282 31.2027 84.4296 31.032C84.1416 30.8613 83.7842 30.776 83.3576 30.776C82.9096 30.776 82.5202 30.872 82.1896 31.064C81.8589 31.256 81.6029 31.528 81.4216 31.88C81.2402 32.2213 81.1496 32.632 81.1496 33.112C81.1496 33.592 81.2456 34.0133 81.4376 34.376C81.6296 34.7387 81.9016 35.0213 82.2536 35.224C82.6056 35.416 83.0109 35.512 83.4696 35.512C83.8642 35.512 84.2269 35.4427 84.5576 35.304C84.8989 35.1653 85.1869 34.9627 85.4216 34.696L86.5416 35.832C86.1682 36.2693 85.7149 36.6 85.1816 36.824C84.6482 37.048 84.0829 37.16 83.4856 37.16ZM95.3476 37.16C94.4622 37.16 93.7102 37 93.0916 36.68C92.4729 36.36 91.9182 35.8907 91.4276 35.272L92.6756 34.024C92.9849 34.472 93.3529 34.824 93.7796 35.08C94.2062 35.3253 94.7502 35.448 95.4116 35.448C96.0302 35.448 96.5209 35.32 96.8836 35.064C97.2569 34.808 97.4436 34.456 97.4436 34.008C97.4436 33.6347 97.3476 33.3307 97.1556 33.096C96.9636 32.8613 96.7076 32.6693 96.3876 32.52C96.0782 32.36 95.7316 32.2213 95.3476 32.104C94.9742 31.976 94.5956 31.8373 94.2116 31.688C93.8382 31.528 93.4916 31.3307 93.1716 31.096C92.8622 30.8613 92.6116 30.5573 92.4196 30.184C92.2276 29.8107 92.1316 29.336 92.1316 28.76C92.1316 28.0987 92.2916 27.5387 92.6116 27.08C92.9422 26.6107 93.3849 26.2533 93.9396 26.008C94.4942 25.7627 95.1129 25.64 95.7956 25.64C96.5316 25.64 97.1876 25.784 97.7636 26.072C98.3502 26.36 98.8249 26.728 99.1876 27.176L97.9396 28.424C97.6196 28.0613 97.2836 27.7947 96.9316 27.624C96.5902 27.4427 96.1956 27.352 95.7476 27.352C95.1929 27.352 94.7556 27.464 94.4356 27.688C94.1262 27.912 93.9716 28.2267 93.9716 28.632C93.9716 28.9733 94.0676 29.2507 94.2596 29.464C94.4516 29.6667 94.7022 29.8427 95.0116 29.992C95.3316 30.1307 95.6782 30.264 96.0516 30.392C96.4356 30.52 96.8142 30.664 97.1876 30.824C97.5716 30.984 97.9182 31.192 98.2276 31.448C98.5476 31.6933 98.8036 32.0133 98.9956 32.408C99.1876 32.8027 99.2836 33.2987 99.2836 33.896C99.2836 34.8987 98.9262 35.6933 98.2116 36.28C97.5076 36.8667 96.5529 37.16 95.3476 37.16ZM102.206 37V26.12H103.966V37H102.206ZM100.366 30.92V29.32H105.806V30.92H100.366ZM110.546 37.16C109.8 37.16 109.122 36.984 108.514 36.632C107.906 36.2693 107.421 35.784 107.058 35.176C106.706 34.568 106.53 33.8907 106.53 33.144C106.53 32.3973 106.706 31.7253 107.058 31.128C107.421 30.5307 107.906 30.056 108.514 29.704C109.122 29.3413 109.8 29.16 110.546 29.16C111.304 29.16 111.986 29.336 112.594 29.688C113.202 30.04 113.682 30.52 114.034 31.128C114.397 31.7253 114.578 32.3973 114.578 33.144C114.578 33.8907 114.397 34.568 114.034 35.176C113.682 35.784 113.202 36.2693 112.594 36.632C111.986 36.984 111.304 37.16 110.546 37.16ZM110.546 35.464C110.984 35.464 111.368 35.368 111.698 35.176C112.04 34.9733 112.301 34.696 112.482 34.344C112.674 33.992 112.77 33.592 112.77 33.144C112.77 32.696 112.674 32.3013 112.482 31.96C112.29 31.6187 112.029 31.352 111.698 31.16C111.368 30.9573 110.984 30.856 110.546 30.856C110.12 30.856 109.736 30.9573 109.394 31.16C109.064 31.352 108.802 31.6187 108.61 31.96C108.429 32.3013 108.338 32.696 108.338 33.144C108.338 33.592 108.429 33.992 108.61 34.344C108.802 34.696 109.064 34.9733 109.394 35.176C109.736 35.368 110.12 35.464 110.546 35.464ZM116.202 37V29.32H117.962V37H116.202ZM117.962 32.728L117.354 32.424C117.354 31.4533 117.567 30.6693 117.994 30.072C118.431 29.464 119.087 29.16 119.962 29.16C120.346 29.16 120.693 29.2293 121.002 29.368C121.311 29.5067 121.599 29.7307 121.866 30.04L120.714 31.224C120.575 31.0747 120.421 30.968 120.25 30.904C120.079 30.84 119.882 30.808 119.658 30.808C119.167 30.808 118.762 30.9627 118.442 31.272C118.122 31.5813 117.962 32.0667 117.962 32.728ZM126.211 37.16C125.443 37.16 124.75 36.9893 124.131 36.648C123.523 36.296 123.038 35.816 122.675 35.208C122.323 34.6 122.147 33.9173 122.147 33.16C122.147 32.4027 122.323 31.7253 122.675 31.128C123.027 30.52 123.502 30.04 124.099 29.688C124.707 29.336 125.379 29.16 126.115 29.16C126.83 29.16 127.459 29.3253 128.003 29.656C128.558 29.9867 128.99 30.44 129.299 31.016C129.619 31.592 129.779 32.248 129.779 32.984C129.779 33.112 129.769 33.2453 129.747 33.384C129.737 33.512 129.715 33.656 129.683 33.816H123.379V32.376H128.771L128.115 32.952C128.094 32.4827 128.003 32.088 127.843 31.768C127.683 31.448 127.454 31.2027 127.155 31.032C126.867 30.8613 126.51 30.776 126.083 30.776C125.635 30.776 125.246 30.872 124.915 31.064C124.585 31.256 124.329 31.528 124.147 31.88C123.966 32.2213 123.875 32.632 123.875 33.112C123.875 33.592 123.971 34.0133 124.163 34.376C124.355 34.7387 124.627 35.0213 124.979 35.224C125.331 35.416 125.737 35.512 126.195 35.512C126.59 35.512 126.953 35.4427 127.283 35.304C127.625 35.1653 127.913 34.9627 128.147 34.696L129.267 35.832C128.894 36.2693 128.441 36.6 127.907 36.824C127.374 37.048 126.809 37.16 126.211 37.16Z" fill="white"/>
</svg>
