<svg width="387" height="264" viewBox="0 0 387 264" fill="none" xmlns="http://www.w3.org/2000/svg">
<path fill-rule="evenodd" clip-rule="evenodd" d="M407.524 320.485C375.929 374.16 291.17 372.139 214.852 350.451C139.542 329.049 62.4056 284.116 45.699 217.661C28.6396 149.802 79.3386 99.1327 146.894 80.1274C210.04 62.3625 287.029 83.4868 342.101 134.275C401.913 189.435 439.844 265.579 407.524 320.485Z" stroke="#B6B3FB" stroke-width="1.5"/>
<path fill-rule="evenodd" clip-rule="evenodd" d="M382.741 320.239C348.178 368.608 267.761 359.542 197.028 332.489C127.229 305.793 57.6769 256.571 47.394 191.979C36.8939 126.023 89.368 82.1206 155.2 69.7449C216.735 58.1768 288.154 84.7504 336.233 137.68C388.452 195.166 418.098 270.759 382.741 320.239Z" fill="#807AF9"/>
</svg>
