<svg width="243" height="201" viewBox="0 0 243 201" fill="none" xmlns="http://www.w3.org/2000/svg">
<path fill-rule="evenodd" clip-rule="evenodd" d="M33.4888 2.33732C51.0788 -4.90402 74.7375 10.3492 95.1583 10.1059C112.054 9.90458 124.917 -1.94773 142.286 1.04108C161.229 4.30087 182.771 11.4675 196.311 27.5126C209.823 43.525 204.073 64.7482 211.768 83.3776C219.978 103.254 244.371 120.756 242.796 140.051C241.244 159.064 219.234 165.093 204.324 174.576C191.463 182.756 177.07 187.574 161.728 191.613C144.966 196.024 128.585 200.247 110.135 199.366C85.6793 198.199 52.9607 207.808 36.8703 185.654C19.1764 161.292 51.8095 136.455 44.5608 109.082C38.4883 86.1502 3.04428 71.7681 0.682568 48.9991C-1.5703 27.2795 15.2076 9.8632 33.4888 2.33732Z" fill="currentcolor"/>
</svg>
