<svg width="49" height="37" viewBox="0 0 49 37" fill="none" xmlns="http://www.w3.org/2000/svg">
<path d="M16.6498 31.7637C16.3994 31.7772 16.1514 31.706 15.9431 31.561C15.7348 31.416 15.5777 31.205 15.4955 30.9599L14.0649 26.6955C13.4488 24.8399 12.3828 23.1768 10.9688 21.8654C9.55487 20.5539 7.84025 19.6377 5.98882 19.2046L1.73252 18.1942C1.4881 18.136 1.26839 17.9972 1.1066 17.7988C0.944818 17.6004 0.849758 17.3533 0.835793 17.0947C0.821829 16.8361 0.88972 16.5801 1.0292 16.3655C1.16868 16.1509 1.37217 15.9892 1.60891 15.905L5.73164 14.4422C7.52565 13.8121 9.13165 12.7167 10.3961 11.2606C11.6606 9.80442 12.5413 8.03625 12.9541 6.12504L13.9171 1.73137C13.9726 1.47905 14.1061 1.25256 14.2976 1.08611C14.489 0.919671 14.7279 0.822335 14.9782 0.808821C15.2284 0.795307 15.4764 0.866349 15.6847 1.01121C15.8929 1.15606 16.0501 1.36686 16.1324 1.61173L17.563 5.87615C18.1792 7.73179 19.2452 9.39483 20.6591 10.7063C22.0731 12.0178 23.7877 12.9339 25.6391 13.3671L29.8954 14.3775C30.1398 14.4357 30.3595 14.5745 30.5213 14.7729C30.6831 14.9712 30.7782 15.2184 30.7921 15.477C30.8061 15.7356 30.7382 15.9915 30.5987 16.2062C30.4593 16.4208 30.2558 16.5824 30.019 16.6666L25.8963 18.1295C24.1023 18.7596 22.4963 19.855 21.2318 21.3111C19.9673 22.7673 19.0866 24.5354 18.6739 26.4466L17.7108 30.8403C17.6555 31.0928 17.522 31.3195 17.3306 31.4861C17.1391 31.6527 16.9002 31.7501 16.6498 31.7637ZM6.18132 16.806L6.49355 16.8815C8.72793 17.4044 10.7972 18.5101 12.5036 20.0929C14.21 21.6757 15.4966 23.6827 16.2404 25.9221L16.3466 26.2348L16.4186 25.9125C16.9168 23.606 17.9798 21.4721 19.5058 19.7147C21.0319 17.9574 22.97 16.6353 25.1351 15.8748L25.4374 15.7662L25.1252 15.6907C22.8908 15.1678 20.8215 14.0621 19.1151 12.4793C17.4087 10.8965 16.1221 8.88952 15.3784 6.65007L15.2765 6.33396L15.2046 6.65627C14.7063 8.96279 13.6434 11.0967 12.1173 12.854C10.5913 14.6114 8.65311 15.9334 6.48804 16.6939L6.18132 16.806Z" fill="currentcolor"/>
<path d="M40.4551 36.0381C40.313 36.0458 40.1721 36.0054 40.0538 35.923C39.9355 35.8407 39.8463 35.7208 39.7996 35.5817L38.9872 33.16C38.6373 32.1062 38.032 31.1618 37.229 30.417C36.4261 29.6722 35.4523 29.152 34.4009 28.906L31.9839 28.3322C31.8451 28.2992 31.7203 28.2203 31.6284 28.1077C31.5365 27.995 31.4826 27.8547 31.4746 27.7078C31.4667 27.561 31.5053 27.4156 31.5845 27.2937C31.6637 27.1719 31.7792 27.0801 31.9137 27.0323L34.2549 26.2015C35.2737 25.8437 36.1857 25.2216 36.9038 24.3947C37.6219 23.5678 38.122 22.5637 38.3564 21.4784L38.9033 18.9833C38.9348 18.84 39.0106 18.7114 39.1194 18.6168C39.2281 18.5223 39.3637 18.467 39.5059 18.4594C39.648 18.4517 39.7888 18.492 39.9071 18.5743C40.0253 18.6566 40.1146 18.7763 40.1613 18.9153L40.9737 21.337C41.3237 22.3908 41.929 23.3352 42.732 24.08C43.5349 24.8248 44.5086 25.345 45.56 25.591L47.9771 26.1648C48.1159 26.1979 48.2407 26.2767 48.3326 26.3893C48.4244 26.502 48.4784 26.6423 48.4863 26.7892C48.4943 26.936 48.4557 27.0814 48.3765 27.2033C48.2973 27.3251 48.1817 27.4169 48.0473 27.4648L45.7061 28.2955C44.6873 28.6533 43.7753 29.2754 43.0572 30.1023C42.3391 30.9292 41.839 31.9333 41.6046 33.0187L41.0577 35.5137C41.0263 35.6571 40.9505 35.7858 40.8417 35.8805C40.733 35.9751 40.5973 36.0304 40.4551 36.0381ZM34.5103 27.5439L34.6876 27.5868C35.9564 27.8837 37.1315 28.5116 38.1006 29.4104C39.0696 30.3093 39.8003 31.449 40.2226 32.7208L40.283 32.8983L40.3238 32.7153C40.6068 31.4055 41.2104 30.1937 42.077 29.1957C42.9437 28.1977 44.0443 27.447 45.2738 27.0151L45.4455 26.9534L45.2682 26.9105C43.9993 26.6136 42.8242 25.9857 41.8551 25.0868C40.8861 24.188 40.1555 23.0483 39.7331 21.7765L39.6753 21.597L39.6344 21.78C39.3515 23.0899 38.7478 24.3017 37.8812 25.2996C37.0146 26.2976 35.914 27.0484 34.6845 27.4803L34.5103 27.5439Z" fill="currentcolor"/>
</svg>
