<svg width="157" height="52" viewBox="0 0 157 52" fill="none" xmlns="http://www.w3.org/2000/svg">
<rect width="157" height="52" fill="#1C1B3C"/>
<path d="M14.5996 35.7525V20.246C14.5996 19.7079 14.9223 19.2336 15.3968 19.0146L24.7453 27.9993L15.3968 36.9839C14.9223 36.7558 14.5996 36.2906 14.5996 35.7525ZM27.7064 30.8452L17.4943 36.5187L25.552 28.7746L27.7064 30.8452ZM30.8858 26.9138C31.2085 27.1601 31.4458 27.5432 31.4458 27.9993C31.4458 28.4553 31.237 28.8202 30.9048 29.0756L28.7314 30.2796L26.3587 27.9993L28.7314 25.7189L30.8858 26.9138ZM17.4943 19.4798L27.7064 25.1534L25.552 27.2239L17.4943 19.4798Z" fill="white"/>
<path d="M51.9887 22.1529C51.3074 22.1531 50.668 22.0273 50.0706 21.7755C49.4826 21.5143 48.9645 21.1551 48.5163 20.6979C48.0775 20.2407 47.7321 19.7088 47.4799 19.1022C47.2277 18.4956 47.1016 17.8423 47.1014 17.1423C47.1012 16.4423 47.227 15.7936 47.4789 15.1962C47.7307 14.5894 48.0805 14.0573 48.5284 13.5999C48.9763 13.1424 49.4989 12.7876 50.0961 12.5355C50.7027 12.2833 51.3607 12.1571 52.07 12.1569C52.8447 12.1567 53.5587 12.3059 54.2122 12.6043C54.8656 12.9028 55.4117 13.332 55.8505 13.8919L54.9407 14.8021C54.6326 14.3542 54.2265 14.0137 53.7225 13.7805C53.2184 13.5379 52.6677 13.4168 52.0704 13.4169C51.361 13.4171 50.7311 13.576 50.1805 13.8934C49.6393 14.2109 49.2147 14.6497 48.9069 15.2098C48.6083 15.7699 48.4592 16.4139 48.4594 17.1419C48.4596 17.8792 48.6138 18.5279 48.9219 19.0878C49.2301 19.6477 49.6455 20.0862 50.1683 20.4034C50.691 20.7206 51.2884 20.8791 51.9604 20.879C52.6417 20.8788 53.2297 20.7479 53.7243 20.4865C54.2282 20.225 54.6154 19.8422 54.886 19.3382C55.1565 18.8248 55.2917 18.1994 55.2915 17.4621L56.0896 18.0358L51.8896 18.037L51.8893 16.833L56.6493 16.8317L56.6493 17.0277C56.6497 18.157 56.4492 19.1044 56.0481 19.8699C55.6563 20.626 55.1058 21.1954 54.3966 21.5783C53.6967 21.9612 52.8941 22.1527 51.9887 22.1529ZM61.4169 22.1504C60.7542 22.1506 60.1568 22.0014 59.6247 21.7029C59.0926 21.395 58.6725 20.9798 58.3644 20.4572C58.0563 19.9346 57.9021 19.342 57.9019 18.6794C57.9017 18.026 58.0509 17.438 58.3494 16.9152C58.6573 16.3925 59.0679 15.9817 59.5811 15.6829C60.1037 15.3748 60.687 15.2206 61.331 15.2204C61.947 15.2203 62.4884 15.3601 62.9551 15.64C63.4312 15.9199 63.7999 16.3071 64.0614 16.8017C64.3322 17.2963 64.4677 17.8562 64.4679 18.4816C64.4679 18.5749 64.4632 18.6776 64.4539 18.7896C64.4446 18.8923 64.426 19.0136 64.398 19.1536L58.784 19.1551L58.7838 18.1051L63.7258 18.1038L63.2639 18.5099C63.2638 18.0619 63.1843 17.6839 63.0256 17.376C62.8668 17.0587 62.6427 16.8161 62.3534 16.6482C62.064 16.4709 61.714 16.3823 61.3033 16.3824C60.874 16.3826 60.496 16.476 60.1694 16.6627C59.8428 16.8495 59.5908 17.1109 59.4136 17.4469C59.2363 17.783 59.1478 18.1797 59.1479 18.637C59.148 19.1037 59.2415 19.5143 59.4282 19.8689C59.615 20.2142 59.8811 20.4848 60.2265 20.6807C60.5718 20.8673 60.9685 20.9605 61.4165 20.9604C61.7899 20.9603 62.1305 20.8949 62.4385 20.7641C62.7558 20.6334 63.0264 20.4373 63.2503 20.1759L64.0625 21.0017C63.7453 21.3751 63.3534 21.6599 62.8868 21.856C62.4295 22.0521 61.9395 22.1503 61.4169 22.1504ZM66.8133 22.0089L66.8107 12.5729L68.0707 12.5726L68.0733 22.0086L66.8133 22.0089ZM65.1738 16.5074L65.1735 15.3594L69.7095 15.3582L69.7098 16.5062L65.1738 16.5074ZM74.3617 22.0069L74.3591 12.2909L75.6751 12.2906L75.6777 22.0066L74.3617 22.0069ZM78.909 22.0057L78.9065 12.5697L80.1665 12.5693L80.169 22.0053L78.909 22.0057ZM77.2696 16.5041L77.2693 15.3561L81.8053 15.3549L81.8056 16.5029L77.2696 16.5041ZM90.8815 22.1425C90.1908 22.1426 89.5468 22.0168 88.9494 21.765C88.352 21.5038 87.8292 21.1446 87.3811 20.6874C86.933 20.2209 86.5828 19.6843 86.3307 19.0777C86.0878 18.4711 85.9663 17.8225 85.9661 17.1318C85.9659 16.4318 86.0871 15.7831 86.3296 15.1857C86.5814 14.579 86.9266 14.0469 87.3652 13.5894C87.8131 13.132 88.331 12.7771 88.9189 12.525C89.5162 12.2728 90.1601 12.1467 90.8508 12.1465C91.5415 12.1463 92.1808 12.2721 92.7689 12.5239C93.3663 12.7758 93.8891 13.1303 94.3372 13.5875C94.7853 14.0447 95.1354 14.5766 95.3876 15.1832C95.6398 15.7898 95.766 16.4431 95.7661 17.1431C95.7663 17.8338 95.6405 18.4825 95.3887 19.0892C95.1368 19.696 94.787 20.2281 94.3391 20.6855C93.9006 21.143 93.3827 21.5025 92.7854 21.7639C92.1975 22.0161 91.5628 22.1423 90.8815 22.1425ZM90.8531 20.8825C91.5531 20.8823 92.1644 20.7234 92.687 20.406C93.2189 20.0792 93.6388 19.6357 93.9467 19.0756C94.2545 18.5062 94.4083 17.8575 94.4081 17.1295C94.408 16.5882 94.3192 16.0935 94.1417 15.6456C93.9643 15.1883 93.7168 14.7917 93.3994 14.4558C93.082 14.1199 92.7086 13.8633 92.2792 13.6861C91.8498 13.4995 91.3738 13.4063 90.8511 13.4065C90.1605 13.4067 89.5492 13.5655 89.0173 13.883C88.4947 14.2004 88.0795 14.6392 87.7716 15.1993C87.4731 15.7594 87.3239 16.4034 87.3241 17.1314C87.3243 17.6728 87.4084 18.1767 87.5765 18.6433C87.754 19.1006 87.9968 19.4972 88.3049 19.8332C88.6223 20.1597 88.9957 20.4163 89.4251 20.6029C89.8638 20.7894 90.3398 20.8826 90.8531 20.8825ZM102.193 21.9994L102.192 18.1214C102.192 17.6174 102.033 17.2021 101.715 16.8755C101.398 16.549 100.987 16.3857 100.483 16.3859C100.147 16.386 99.8485 16.4607 99.5872 16.6101C99.3259 16.7595 99.1207 16.9649 98.9714 17.2263C98.8221 17.4877 98.7475 17.7863 98.7476 18.1223L98.2296 17.8285C98.2294 17.3245 98.3413 16.8764 98.5652 16.4844C98.7891 16.0923 99.1017 15.7842 99.5029 15.5601C99.9042 15.3267 100.357 15.2099 100.861 15.2098C101.365 15.2096 101.808 15.3355 102.191 15.5874C102.583 15.8393 102.891 16.1706 103.115 16.5812C103.339 16.9824 103.451 17.4117 103.452 17.8691L103.453 21.9991L102.193 21.9994ZM97.4887 22.0007L97.4869 15.3507L98.7469 15.3503L98.7487 22.0003L97.4887 22.0007Z" fill="#B2BBCC"/>
<path d="M52.472 40.16C51.704 40.16 50.9787 40.0107 50.296 39.712C49.6133 39.4133 49.016 39.0027 48.504 38.48C47.992 37.9467 47.5867 37.3333 47.288 36.64C47 35.936 46.856 35.184 46.856 34.384C46.856 33.584 47 32.8373 47.288 32.144C47.5867 31.4507 47.992 30.8427 48.504 30.32C49.0267 29.7867 49.6347 29.376 50.328 29.088C51.032 28.7893 51.7893 28.64 52.6 28.64C53.4853 28.64 54.3067 28.8107 55.064 29.152C55.8213 29.4933 56.456 29.9787 56.968 30.608L55.72 31.856C55.3893 31.3867 54.9467 31.0293 54.392 30.784C53.8373 30.528 53.24 30.4 52.6 30.4C51.832 30.4 51.1547 30.5707 50.568 30.912C49.992 31.2427 49.544 31.7067 49.224 32.304C48.904 32.9013 48.744 33.5947 48.744 34.384C48.744 35.1733 48.904 35.872 49.224 36.48C49.5547 37.0773 49.9973 37.5467 50.552 37.888C51.1067 38.2293 51.736 38.4 52.44 38.4C53.1867 38.4 53.8267 38.2667 54.36 38C54.904 37.7227 55.32 37.3173 55.608 36.784C55.896 36.24 56.04 35.5733 56.04 34.784L57.192 35.616H52.408V33.936H57.944V34.192C57.944 35.5253 57.704 36.6347 57.224 37.52C56.7547 38.4053 56.1093 39.0667 55.288 39.504C54.4667 39.9413 53.528 40.16 52.472 40.16ZM63.2154 40.16C62.4687 40.16 61.7914 39.984 61.1834 39.632C60.5754 39.2693 60.09 38.784 59.7274 38.176C59.3754 37.568 59.1994 36.8907 59.1994 36.144C59.1994 35.3973 59.3754 34.7253 59.7274 34.128C60.09 33.5307 60.5754 33.056 61.1834 32.704C61.7914 32.3413 62.4687 32.16 63.2154 32.16C63.9727 32.16 64.6554 32.336 65.2634 32.688C65.8714 33.04 66.3514 33.52 66.7034 34.128C67.066 34.7253 67.2474 35.3973 67.2474 36.144C67.2474 36.8907 67.066 37.568 66.7034 38.176C66.3514 38.784 65.8714 39.2693 65.2634 39.632C64.6554 39.984 63.9727 40.16 63.2154 40.16ZM63.2154 38.464C63.6527 38.464 64.0367 38.368 64.3674 38.176C64.7087 37.9733 64.97 37.696 65.1514 37.344C65.3434 36.992 65.4394 36.592 65.4394 36.144C65.4394 35.696 65.3434 35.3013 65.1514 34.96C64.9594 34.6187 64.698 34.352 64.3674 34.16C64.0367 33.9573 63.6527 33.856 63.2154 33.856C62.7887 33.856 62.4047 33.9573 62.0634 34.16C61.7327 34.352 61.4714 34.6187 61.2794 34.96C61.098 35.3013 61.0074 35.696 61.0074 36.144C61.0074 36.592 61.098 36.992 61.2794 37.344C61.4714 37.696 61.7327 37.9733 62.0634 38.176C62.4047 38.368 62.7887 38.464 63.2154 38.464ZM72.391 40.16C71.6443 40.16 70.967 39.984 70.359 39.632C69.751 39.2693 69.2657 38.784 68.903 38.176C68.551 37.568 68.375 36.8907 68.375 36.144C68.375 35.3973 68.551 34.7253 68.903 34.128C69.2657 33.5307 69.751 33.056 70.359 32.704C70.967 32.3413 71.6443 32.16 72.391 32.16C73.1483 32.16 73.831 32.336 74.439 32.688C75.047 33.04 75.527 33.52 75.879 34.128C76.2417 34.7253 76.423 35.3973 76.423 36.144C76.423 36.8907 76.2417 37.568 75.879 38.176C75.527 38.784 75.047 39.2693 74.439 39.632C73.831 39.984 73.1483 40.16 72.391 40.16ZM72.391 38.464C72.8283 38.464 73.2123 38.368 73.543 38.176C73.8843 37.9733 74.1457 37.696 74.327 37.344C74.519 36.992 74.615 36.592 74.615 36.144C74.615 35.696 74.519 35.3013 74.327 34.96C74.135 34.6187 73.8737 34.352 73.543 34.16C73.2123 33.9573 72.8283 33.856 72.391 33.856C71.9643 33.856 71.5803 33.9573 71.239 34.16C70.9083 34.352 70.647 34.6187 70.455 34.96C70.2737 35.3013 70.183 35.696 70.183 36.144C70.183 36.592 70.2737 36.992 70.455 37.344C70.647 37.696 70.9083 37.9733 71.239 38.176C71.5803 38.368 71.9643 38.464 72.391 38.464ZM81.2466 43.36C80.436 43.36 79.7266 43.2107 79.1186 42.912C78.5106 42.624 78.02 42.2133 77.6466 41.68L78.7986 40.528C79.108 40.912 79.46 41.2 79.8546 41.392C80.2493 41.584 80.724 41.68 81.2786 41.68C81.972 41.68 82.5213 41.4987 82.9266 41.136C83.332 40.784 83.5346 40.2987 83.5346 39.68V37.792L83.8386 36.096L83.5346 34.384V32.32H85.2946V39.68C85.2946 40.416 85.124 41.056 84.7826 41.6C84.4413 42.1547 83.9666 42.5867 83.3586 42.896C82.7506 43.2053 82.0466 43.36 81.2466 43.36ZM81.1666 39.84C80.484 39.84 79.8653 39.6747 79.3106 39.344C78.7666 39.0027 78.3346 38.5387 78.0146 37.952C77.7053 37.3653 77.5506 36.7093 77.5506 35.984C77.5506 35.2587 77.7053 34.608 78.0146 34.032C78.3346 33.456 78.7666 33.0027 79.3106 32.672C79.8653 32.3307 80.484 32.16 81.1666 32.16C81.7746 32.16 82.308 32.2827 82.7666 32.528C83.2253 32.7733 83.5826 33.1147 83.8386 33.552C84.0946 33.9787 84.2226 34.48 84.2226 35.056V36.944C84.2226 37.5093 84.0893 38.0107 83.8226 38.448C83.5666 38.8853 83.2093 39.2267 82.7506 39.472C82.292 39.7173 81.764 39.84 81.1666 39.84ZM81.5186 38.176C81.9453 38.176 82.3186 38.0853 82.6386 37.904C82.9586 37.7227 83.204 37.472 83.3746 37.152C83.556 36.8213 83.6466 36.4373 83.6466 36C83.6466 35.5627 83.556 35.184 83.3746 34.864C83.204 34.5333 82.9586 34.2773 82.6386 34.096C82.3186 33.9147 81.9453 33.824 81.5186 33.824C81.092 33.824 80.7133 33.9147 80.3826 34.096C80.0626 34.2773 79.812 34.5333 79.6306 34.864C79.4493 35.184 79.3586 35.5627 79.3586 36C79.3586 36.4267 79.4493 36.8053 79.6306 37.136C79.812 37.4667 80.0626 37.7227 80.3826 37.904C80.7133 38.0853 81.092 38.176 81.5186 38.176ZM87.4098 40V28.48H89.1698V40H87.4098ZM94.8565 40.16C94.0885 40.16 93.3952 39.9893 92.7765 39.648C92.1685 39.296 91.6832 38.816 91.3205 38.208C90.9685 37.6 90.7925 36.9173 90.7925 36.16C90.7925 35.4027 90.9685 34.7253 91.3205 34.128C91.6725 33.52 92.1472 33.04 92.7445 32.688C93.3525 32.336 94.0245 32.16 94.7605 32.16C95.4752 32.16 96.1045 32.3253 96.6485 32.656C97.2032 32.9867 97.6352 33.44 97.9445 34.016C98.2645 34.592 98.4245 35.248 98.4245 35.984C98.4245 36.112 98.4138 36.2453 98.3925 36.384C98.3818 36.512 98.3605 36.656 98.3285 36.816H92.0245V35.376H97.4165L96.7605 35.952C96.7392 35.4827 96.6485 35.088 96.4885 34.768C96.3285 34.448 96.0992 34.2027 95.8005 34.032C95.5125 33.8613 95.1552 33.776 94.7285 33.776C94.2805 33.776 93.8912 33.872 93.5605 34.064C93.2298 34.256 92.9738 34.528 92.7925 34.88C92.6112 35.2213 92.5205 35.632 92.5205 36.112C92.5205 36.592 92.6165 37.0133 92.8085 37.376C93.0005 37.7387 93.2725 38.0213 93.6245 38.224C93.9765 38.416 94.3818 38.512 94.8405 38.512C95.2352 38.512 95.5978 38.4427 95.9285 38.304C96.2698 38.1653 96.5578 37.9627 96.7925 37.696L97.9125 38.832C97.5392 39.2693 97.0858 39.6 96.5525 39.824C96.0192 40.048 95.4538 40.16 94.8565 40.16ZM104.862 35.776V34.176H107.662C108.047 34.176 108.383 34.1013 108.67 33.952C108.969 33.792 109.204 33.5733 109.374 33.296C109.545 33.008 109.63 32.672 109.63 32.288C109.63 31.904 109.545 31.5733 109.374 31.296C109.204 31.008 108.969 30.7893 108.67 30.64C108.383 30.48 108.047 30.4 107.662 30.4H104.862V28.8H107.759C108.462 28.8 109.092 28.944 109.647 29.232C110.212 29.52 110.655 29.9253 110.974 30.448C111.305 30.9707 111.47 31.584 111.47 32.288C111.47 32.992 111.305 33.6053 110.974 34.128C110.655 34.6507 110.212 35.056 109.647 35.344C109.092 35.632 108.462 35.776 107.759 35.776H104.862ZM103.598 40V28.8H105.438V40H103.598ZM113.175 40V28.48H114.935V40H113.175ZM120.269 40.16C119.576 40.16 118.947 39.984 118.381 39.632C117.827 39.28 117.384 38.8053 117.053 38.208C116.733 37.6 116.573 36.9227 116.573 36.176C116.573 35.4187 116.733 34.7413 117.053 34.144C117.384 33.536 117.827 33.056 118.381 32.704C118.947 32.3413 119.576 32.16 120.269 32.16C120.856 32.16 121.373 32.288 121.821 32.544C122.28 32.7893 122.643 33.1307 122.909 33.568C123.176 34.0053 123.309 34.5013 123.309 35.056V37.264C123.309 37.8187 123.176 38.3147 122.909 38.752C122.653 39.1893 122.296 39.536 121.837 39.792C121.379 40.0373 120.856 40.16 120.269 40.16ZM120.557 38.496C121.208 38.496 121.731 38.2773 122.125 37.84C122.531 37.4027 122.733 36.8427 122.733 36.16C122.733 35.7013 122.643 35.296 122.461 34.944C122.28 34.592 122.024 34.32 121.693 34.128C121.373 33.9253 120.995 33.824 120.557 33.824C120.131 33.824 119.752 33.9253 119.421 34.128C119.101 34.32 118.845 34.592 118.653 34.944C118.472 35.296 118.381 35.7013 118.381 36.16C118.381 36.6187 118.472 37.024 118.653 37.376C118.845 37.728 119.101 38.0053 119.421 38.208C119.752 38.4 120.131 38.496 120.557 38.496ZM122.621 40V37.936L122.925 36.064L122.621 34.208V32.32H124.382V40H122.621ZM128.975 40.08L125.695 32.32H127.631L129.871 38.016H129.311L131.679 32.32H133.631L130.063 40.08H128.975ZM126.687 43.2L129.071 38.288L130.063 40.08L128.639 43.2H126.687Z" fill="white"/>
</svg>
