<svg width="401" height="394" viewBox="0 0 401 394" fill="none" xmlns="http://www.w3.org/2000/svg">
<path d="M25.0021 74.3114C24.9681 33.4423 58.0715 0.283875 98.9406 0.249897L326 0.0611223C366.869 0.0271443 400.028 33.1305 400.062 73.9996C400.096 114.869 366.992 148.027 326.123 148.061L99.0636 148.25C58.1946 148.284 25.0361 115.18 25.0021 74.3114Z" fill="currentcolor"/>
<path d="M21.1658 199.323C21.1323 159.006 53.7884 126.295 94.1051 126.262L306.105 126.086C346.422 126.052 379.132 158.708 379.166 199.025C379.199 239.342 346.543 272.052 306.226 272.086L94.2265 272.262C53.9097 272.295 21.1994 239.639 21.1658 199.323Z" fill="currentcolor"/>
<path d="M0.264675 318.34C0.230238 276.919 33.781 243.312 75.2023 243.278L325.202 243.07C366.624 243.036 400.23 276.586 400.265 318.008C400.299 359.429 366.748 393.036 325.327 393.07L75.327 393.278C33.9057 393.312 0.299112 359.762 0.264675 318.34Z" fill="currentcolor"/>
</svg>
